<svg width="17" height="30" viewBox="0 0 17 30" fill="none" xmlns="http://www.w3.org/2000/svg">
<path d="M15.492 0.00618557L11.6369 0C7.30575 0 4.50678 2.87165 4.50678 7.31629V10.6896H0.6306C0.295651 10.6896 0.0244141 10.9611 0.0244141 11.2961V16.1836C0.0244141 16.5186 0.295961 16.7898 0.6306 16.7898H4.50678V29.1226C4.50678 29.4575 4.77802 29.7288 5.11297 29.7288H10.1703C10.5052 29.7288 10.7765 29.4572 10.7765 29.1226V16.7898H15.3086C15.6436 16.7898 15.9148 16.5186 15.9148 16.1836L15.9167 11.2961C15.9167 11.1353 15.8527 10.9812 15.7392 10.8674C15.6256 10.7536 15.471 10.6896 15.3102 10.6896H10.7765V7.83C10.7765 6.45557 11.104 5.75783 12.8944 5.75783L15.4914 5.75691C15.8261 5.75691 16.0973 5.48536 16.0973 5.15072V0.612371C16.0973 0.278041 15.8264 0.00680412 15.492 0.00618557Z" fill="#555555"/>
</svg>
