<svg width="174" height="114" viewBox="0 0 174 114" fill="none" xmlns="http://www.w3.org/2000/svg">
<path fill-rule="evenodd" clip-rule="evenodd" d="M115.369 42.9696C115.387 42.6408 115.235 42.4888 114.915 42.5135C112.299 45.4795 110.242 47.5915 108.747 48.8496C104.562 52.6658 101.947 54.3391 100.9 53.8695C100.193 53.2763 100.476 51.9058 101.748 49.7579C104.536 44.7949 105.926 41.1158 105.919 38.7208C106.041 36.6011 105.421 34.5049 104.167 32.7888C101.862 33.9307 100.413 33.8529 99.8172 32.5553C99.6039 31.794 99.8098 31.2515 100.435 30.9277C101.33 30.6089 102.446 30.9944 103.783 32.0844C105.388 31.7285 107.361 29.7574 109.703 26.171C112.072 22.5476 113.385 19.3616 113.643 16.6132C113.916 12.4114 112.227 9.31067 108.576 7.31111C107.622 6.83388 106.626 6.44781 105.599 6.15809C102.346 5.36834 98.9817 5.13516 95.6502 5.4685C91.2973 5.71175 87.0185 6.69741 83.0001 8.38257C78.6869 10.2061 74.6842 12.6863 71.1352 15.7345C66.4869 19.5804 63.2897 23.6821 61.5435 28.0396C59.7675 32.0609 59.0792 35.6523 59.4785 38.8135C60.1879 43.129 63.1644 45.0581 68.408 44.6008C74.0261 43.7185 79.4705 40.8761 84.7414 36.0737C88.0081 32.5071 90.0507 29.0777 90.8692 25.7854C91.4868 21.942 89.8746 19.7682 86.0324 19.264C81.3594 19.3727 76.5226 22.5933 71.5221 28.9257C70.2373 30.552 68.6535 33.3697 66.7709 37.3787C66.2302 38.3402 65.9821 38.397 66.0268 37.5492C66.7511 34.3583 68.3286 31.1699 70.7594 27.984C73.4705 24.5088 76.5065 21.8802 79.8674 20.0982C82.767 18.5534 85.3243 18.0591 87.5393 18.6152C90.2007 19.1243 91.6307 21.051 91.8291 24.3951C91.9085 26.412 91.1644 28.7922 89.5968 31.5357C86.717 36.3752 82.9642 40.0542 78.3382 42.5729C72.8962 45.7489 68.1314 46.6882 64.0437 45.3905C60.1297 44.1374 58.1391 41.5632 58.0722 37.6679C58.0416 34.1834 58.8143 30.7384 60.3306 27.5984C62.8007 22.7221 66.2549 18.4067 70.4766 14.9225C74.1055 11.7493 78.2236 9.17921 82.6727 7.31111C86.7695 5.60589 91.1307 4.61757 95.5646 4.38962C99.027 4.21601 102.497 4.52297 105.874 5.30166C106.971 5.59324 108.039 5.98159 109.067 6.4621C111.49 7.47827 113.523 9.24149 114.867 11.4931C115.743 13.0832 116.282 14.8362 116.448 16.6428C116.741 20.5381 115.005 24.3222 111.239 27.9951C109.241 29.8494 106.986 31.4077 104.542 32.622L103.642 33.0187C104.721 34.3534 104.721 36.2825 103.642 38.8061C102.928 40.8699 101.222 44.2672 98.5262 48.9979C97.1322 52.4187 97.5625 54.3923 99.8172 54.9187C101.819 55.2994 104.919 53.4802 109.119 49.4613C111.333 47.425 113.422 45.2584 115.377 42.9733L115.369 42.9696ZM101.804 32.7295C102.235 32.6597 102.658 32.5505 103.069 32.4033C102.885 32.1527 102.648 31.9455 102.375 31.7962C102.102 31.6469 101.799 31.5593 101.488 31.5394C100.835 31.5394 100.523 31.7359 100.55 32.1289C100.761 32.5367 101.179 32.7382 101.804 32.7332V32.7295Z" fill="white" stroke="white" stroke-width="0.22" stroke-miterlimit="22.93"/>
<path fill-rule="evenodd" clip-rule="evenodd" d="M110.763 4.07822C110.726 1.45333 110.852 0 110.852 0C108.62 2.15775 107.716 2.73982 107.716 2.73982C103.597 11.5858 101.249 16.4575 101.249 16.4575L89.7153 40.556L82.9922 54.8224L83.3084 54.9744C92.4202 37.9497 102.016 21.2661 110.763 4.07822ZM107.701 5.83185C109.245 2.8288 110.033 2.91407 108.623 6.2026C108.158 6.01352 107.701 5.83185 107.701 5.83185ZM107.135 6.79209C107.076 6.6957 107.381 6.8477 108.099 7.16284C106.227 10.1844 105.58 9.78031 107.135 6.77726V6.79209Z" fill="white"/>
<path d="M41.878 91.2037H30.6401L16.3911 80.1855C15.3356 80.2087 14.4767 80.2203 13.8145 80.2203C13.5454 80.2203 13.2557 80.2203 12.9452 80.2203C12.6348 80.2087 12.314 80.1971 11.9829 80.1855V87.0328C11.9829 88.5157 12.2726 89.4368 12.8521 89.796C13.6385 90.3058 14.8182 90.5606 16.3911 90.5606H18.0364V91.2037H0V90.5606H1.58323C3.36307 90.5606 4.63586 90.2362 5.40161 89.5874C5.83622 89.2283 6.05352 88.3767 6.05352 87.0328V71.809C6.05352 70.326 5.76378 69.4049 5.1843 69.0457C4.37716 68.536 3.17681 68.2811 1.58323 68.2811H0V67.6381H15.3356C19.8059 67.6381 23.0965 67.8234 25.2075 68.1942C27.3392 68.5533 29.1397 69.2253 30.6091 70.2101C32.0992 71.1833 32.8442 72.3477 32.8442 73.7032C32.8442 75.1515 31.9957 76.4085 30.2987 77.4744C28.6223 78.5403 26.0146 79.2934 22.4756 79.7337L31.1679 86.494C33.1547 88.0465 34.8621 89.0777 36.2901 89.5874C37.7181 90.0972 39.5807 90.4216 41.878 90.5606V91.2037ZM11.9829 79.0907C12.3761 79.0907 12.7176 79.0965 13.0073 79.108C13.2971 79.108 13.5351 79.108 13.7213 79.108C17.7363 79.108 20.7579 78.6214 22.7861 77.6482C24.835 76.675 25.8594 75.4353 25.8594 73.9292C25.8594 72.4578 25.0316 71.2644 23.3759 70.3491C21.7409 69.4223 19.5679 68.9588 16.8567 68.9588C15.6564 68.9588 14.0318 69.0689 11.9829 69.289V79.0907Z" fill="white"/>
<path d="M60.9388 90.5606V91.2037H42.9024V90.5606H44.3925C46.131 90.5606 47.3934 90.2768 48.1798 89.7091C48.6765 89.3383 48.9249 88.4462 48.9249 87.0328V71.809C48.9249 70.6156 48.7904 69.8278 48.5213 69.4455C48.3144 69.1558 47.8901 68.9067 47.2485 68.6982C46.3379 68.4201 45.3859 68.2811 44.3925 68.2811H42.9024V67.6381H60.9388V68.2811H59.4177C57.6999 68.2811 56.4478 68.5649 55.6614 69.1326C55.144 69.5034 54.8853 70.3955 54.8853 71.809V87.0328C54.8853 88.2261 55.0198 89.0139 55.2889 89.3963C55.4958 89.6859 55.9304 89.935 56.5927 90.1436C57.4826 90.4216 58.4243 90.5606 59.4177 90.5606H60.9388Z" fill="white"/>
<path d="M63.5775 91.2037V90.5606H65.1608C66.9406 90.5606 68.203 90.242 68.9481 89.6048C69.4034 89.2225 69.6311 88.3651 69.6311 87.0328V71.809C69.6311 70.3376 69.3413 69.4165 68.7618 69.0457C67.9547 68.536 66.7543 68.2811 65.1608 68.2811H63.5775V67.6381H80.7137C87.0052 67.6381 91.7859 68.0378 95.0559 68.8372C98.3465 69.6366 100.985 70.969 102.972 72.8343C104.979 74.6996 105.983 76.8546 105.983 79.2992C105.983 82.578 104.203 85.3181 100.644 87.5194C96.6494 89.9756 90.5649 91.2037 82.39 91.2037H63.5775ZM75.5914 89.5005C78.2198 89.8249 80.4239 89.9871 82.2038 89.9871C87.0052 89.9871 90.9891 89.0429 94.1556 87.1544C97.322 85.2659 98.9053 82.7054 98.9053 79.473C98.9053 76.2174 97.322 73.6511 94.1556 71.7742C90.9891 69.8973 86.9224 68.9588 81.9554 68.9588C80.0928 68.9588 77.9715 69.1268 75.5914 69.4628V89.5005Z" fill="white"/>
<path d="M109.522 91.2037V90.5606H111.105C112.885 90.5606 114.148 90.242 114.893 89.6048C115.348 89.2225 115.576 88.3651 115.576 87.0328V71.809C115.576 70.3376 115.286 69.4165 114.707 69.0457C113.899 68.536 112.699 68.2811 111.105 68.2811H109.522V67.6381H126.658C132.95 67.6381 137.731 68.0378 141.001 68.8372C144.291 69.6366 146.93 70.969 148.917 72.8343C150.924 74.6996 151.928 76.8546 151.928 79.2992C151.928 82.578 150.148 85.3181 146.588 87.5194C142.594 89.9756 136.51 91.2037 128.335 91.2037H109.522ZM121.536 89.5005C124.165 89.8249 126.369 89.9871 128.148 89.9871C132.95 89.9871 136.934 89.0429 140.1 87.1544C143.267 85.2659 144.85 82.7054 144.85 79.473C144.85 76.2174 143.267 73.6511 140.1 71.7742C136.934 69.8973 132.867 68.9588 127.9 68.9588C126.037 68.9588 123.916 69.1268 121.536 69.4628V89.5005Z" fill="white"/>
<path d="M174 90.5606V91.2037H155.964V90.5606H157.454C159.192 90.5606 160.455 90.2768 161.241 89.7091C161.738 89.3383 161.986 88.4462 161.986 87.0328V71.809C161.986 70.6156 161.852 69.8278 161.583 69.4455C161.376 69.1558 160.951 68.9067 160.31 68.6982C159.399 68.4201 158.447 68.2811 157.454 68.2811H155.964V67.6381H174V68.2811H172.479C170.761 68.2811 169.509 68.5649 168.723 69.1326C168.205 69.5034 167.946 70.3955 167.946 71.809V87.0328C167.946 88.2261 168.081 89.0139 168.35 89.3963C168.557 89.6859 168.992 89.935 169.654 90.1436C170.544 90.4216 171.485 90.5606 172.479 90.5606H174Z" fill="white"/>
<path d="M57.3287 107.763L56.1928 108.246C55.2104 107.354 53.8697 106.907 52.1709 106.907C50.8133 106.907 49.6841 107.207 48.7836 107.805C47.8898 108.403 47.443 109.129 47.443 109.984C47.443 110.54 47.6476 111.063 48.057 111.554C48.4732 112.045 49.0394 112.425 49.7558 112.696C50.479 112.967 51.2874 113.103 52.1812 113.103C53.8186 113.103 55.1558 112.657 56.1928 111.764L57.3287 112.276C56.7966 112.823 56.0802 113.248 55.1797 113.551C54.2859 113.851 53.266 114 52.1198 114C50.3596 114 48.8996 113.617 47.7397 112.851C46.5799 112.084 46 111.152 46 110.054C46 109.316 46.2695 108.632 46.8085 108.001C47.3543 107.365 48.1013 106.87 49.0497 106.515C49.998 106.16 51.0589 105.982 52.2323 105.982C52.9692 105.982 53.6787 106.059 54.361 106.214C55.05 106.368 55.6334 106.569 56.1109 106.816C56.5885 107.064 56.9944 107.379 57.3287 107.763Z" fill="white"/>
<path d="M71.1852 106.179V113.804H69.773V112.493C69.1726 112.993 68.4972 113.369 67.7467 113.622C67.003 113.874 66.1877 114 65.3008 114C63.7248 114 62.3774 113.61 61.2585 112.83C60.1464 112.045 59.5904 111.092 59.5904 109.97C59.5904 108.872 60.1533 107.933 61.279 107.153C62.4047 106.373 63.7589 105.982 65.3418 105.982C66.256 105.982 67.0815 106.116 67.8183 106.382C68.562 106.648 69.2135 107.048 69.773 107.58V106.179H71.1852ZM65.4543 106.929C64.6561 106.929 63.9193 107.064 63.2438 107.335C62.5684 107.601 62.0294 107.977 61.6269 108.463C61.2312 108.949 61.0334 109.463 61.0334 110.005C61.0334 110.543 61.2346 111.056 61.6371 111.547C62.0397 112.038 62.5786 112.421 63.2541 112.696C63.9363 112.967 64.6663 113.103 65.4441 113.103C66.2287 113.103 66.9723 112.967 67.675 112.696C68.3778 112.425 68.9167 112.059 69.292 111.596C69.674 111.134 69.8651 110.613 69.8651 110.033C69.8651 109.15 69.4387 108.412 68.5858 107.819C67.7399 107.225 66.696 106.929 65.4543 106.929Z" fill="white"/>
<path d="M74.4088 106.179H75.8313V107.496C76.3294 107.01 76.8411 106.655 77.3664 106.431C78.0896 106.132 78.8503 105.982 79.6485 105.982C80.1875 105.982 80.6992 106.055 81.1836 106.2C81.668 106.344 82.0637 106.538 82.3707 106.781C82.6777 107.02 82.9438 107.363 83.1689 107.812C83.6465 107.214 84.2435 106.76 84.9598 106.452C85.6762 106.139 86.4471 105.982 87.2726 105.982C88.0436 105.982 88.7224 106.116 89.3092 106.382C89.9027 106.648 90.3428 107.02 90.6293 107.496C90.9159 107.973 91.0591 108.688 91.0591 109.641V113.804H89.5957V109.641C89.5957 108.823 89.5104 108.262 89.3399 107.959C89.1693 107.65 88.8759 107.403 88.4598 107.216C88.0504 107.029 87.5592 106.936 86.9861 106.936C86.2902 106.936 85.6523 107.076 85.0724 107.356C84.4993 107.636 84.0797 108.01 83.8136 108.477C83.5476 108.945 83.4145 109.725 83.4145 110.818V113.804H81.992V109.9C81.992 108.98 81.9068 108.356 81.7362 108.029C81.5725 107.697 81.2825 107.433 80.8663 107.237C80.4502 107.036 79.9555 106.936 79.3824 106.936C78.7207 106.936 78.0998 107.073 77.5199 107.349C76.9468 107.62 76.5204 107.987 76.2407 108.449C75.9678 108.912 75.8313 109.62 75.8313 110.573V113.804H74.4088V106.179Z" fill="white"/>
<path d="M94.5898 103.039C94.9172 103.039 95.197 103.118 95.4289 103.277C95.6609 103.436 95.7769 103.628 95.7769 103.852C95.7769 104.071 95.6609 104.261 95.4289 104.419C95.197 104.578 94.9172 104.658 94.5898 104.658C94.2691 104.658 93.9928 104.578 93.7608 104.419C93.5289 104.261 93.4129 104.071 93.4129 103.852C93.4129 103.628 93.5289 103.436 93.7608 103.277C93.9928 103.118 94.2691 103.039 94.5898 103.039ZM93.8734 106.179H95.3164V113.804H93.8734V106.179Z" fill="white"/>
<path d="M109.091 107.763L107.955 108.246C106.973 107.354 105.632 106.907 103.933 106.907C102.575 106.907 101.446 107.207 100.546 107.805C99.6521 108.403 99.2052 109.129 99.2052 109.984C99.2052 110.54 99.4099 111.063 99.8192 111.554C100.235 112.045 100.802 112.425 101.518 112.696C102.241 112.967 103.05 113.103 103.943 113.103C105.581 113.103 106.918 112.657 107.955 111.764L109.091 112.276C108.559 112.823 107.842 113.248 106.942 113.551C106.048 113.851 105.028 114 103.882 114C102.122 114 100.662 113.617 99.502 112.851C98.3421 112.084 97.7622 111.152 97.7622 110.054C97.7622 109.316 98.0317 108.632 98.5707 108.001C99.1165 107.365 99.8635 106.87 100.812 106.515C101.76 106.16 102.821 105.982 103.995 105.982C104.731 105.982 105.441 106.059 106.123 106.214C106.812 106.368 107.396 106.569 107.873 106.816C108.351 107.064 108.757 107.379 109.091 107.763Z" fill="white"/>
<path d="M112.356 103.039C112.683 103.039 112.963 103.118 113.195 103.277C113.427 103.436 113.543 103.628 113.543 103.852C113.543 104.071 113.427 104.261 113.195 104.419C112.963 104.578 112.683 104.658 112.356 104.658C112.035 104.658 111.759 104.578 111.527 104.419C111.295 104.261 111.179 104.071 111.179 103.852C111.179 103.628 111.295 103.436 111.527 103.277C111.759 103.118 112.035 103.039 112.356 103.039ZM111.639 106.179H113.082V113.804H111.639V106.179Z" fill="white"/>
<path d="M125.424 111.274L126.632 111.708C126.236 112.241 125.779 112.671 125.26 112.998C124.742 113.325 124.158 113.575 123.51 113.748C122.862 113.916 122.129 114 121.31 114C119.495 114 118.076 113.594 117.053 112.781C116.029 111.963 115.518 111.04 115.518 110.012C115.518 109.045 115.951 108.183 116.817 107.426C117.916 106.464 119.386 105.982 121.228 105.982C123.125 105.982 124.639 106.475 125.772 107.461C126.577 108.157 126.986 109.026 127 110.068H116.991C117.019 110.956 117.431 111.685 118.23 112.255C119.028 112.82 120.014 113.103 121.187 113.103C121.754 113.103 122.303 113.035 122.835 112.9C123.374 112.764 123.831 112.584 124.206 112.36C124.581 112.136 124.987 111.774 125.424 111.274ZM125.424 109.22C125.233 108.697 124.953 108.279 124.585 107.966C124.223 107.653 123.742 107.4 123.142 107.209C122.542 107.017 121.91 106.921 121.249 106.921C120.157 106.921 119.219 107.162 118.434 107.643C117.861 107.994 117.428 108.519 117.135 109.22H125.424Z" fill="white"/>
</svg>
