<svg width="180" height="237" viewBox="0 0 180 237" fill="none" xmlns="http://www.w3.org/2000/svg">
<path d="M180 159.245C180 180.523 171.962 198.858 155.887 214.251C139.811 229.417 118.075 237 90.6792 237C58.5283 237 28.3019 226.814 0 206.441L25.1321 169.431C38.9434 177.58 50.4906 183.352 59.7736 186.748C69.283 190.143 79.1321 191.841 89.3208 191.841C101.321 191.841 110.604 189.011 117.17 183.352C123.736 177.467 127.019 169.431 127.019 159.245C127.019 149.511 123.283 141.815 115.811 136.156C108.566 130.497 99.1698 127.668 87.6226 127.668C76.7547 127.668 67.3585 129.139 59.434 132.082L36.6792 100.504L106.302 43.8009H12.2264V0H170.151V43.1218L112.415 90.6576C132.34 92.0158 148.528 98.9198 160.981 111.37C173.66 123.593 180 139.552 180 159.245Z" fill="#999999"/>
</svg>
