<svg width="181" height="237" viewBox="0 0 181 237" fill="none" xmlns="http://www.w3.org/2000/svg">
<path d="M91.1882 164.678C79.718 171.242 71.5741 176.448 66.7567 180.297C61.9392 183.918 58.4981 188.219 56.4335 193.199H179.968V237H0V215.948C0 200.103 3.32636 186.521 9.97909 175.203C16.4024 164.112 24.0875 155.057 33.0342 148.04C41.7516 141.476 53.91 133.553 69.5095 124.272L84.9943 115.105C101.282 105.824 112.179 98.5802 117.684 93.3739C123.42 87.9413 126.746 80.4713 127.663 70.9642C127.663 63.2679 124.796 57.043 119.061 52.2894C113.555 47.5358 106.214 45.159 97.038 45.159C87.403 45.159 77.9975 48.2149 68.8213 54.3266C59.8745 60.4384 50.0101 70.1719 39.2281 83.5272L0 56.0243C25.6933 18.6748 58.2687 0 97.7262 0C124.337 0 144.869 6.67764 159.321 20.0329C173.774 33.1619 181 49.5731 181 69.2665C181 82.8481 178.247 94.3925 172.741 103.9C167.465 112.954 160.583 120.764 152.095 127.328C143.378 133.893 131.449 141.476 116.308 150.077L102.544 158.226C100.708 159.585 96.9233 161.735 91.1882 164.678Z" fill="#999999"/>
</svg>
