<svg width="21" height="25" viewBox="0 0 21 25" fill="none" xmlns="http://www.w3.org/2000/svg">
<g clip-path="url(#clip0)">
<path d="M14.7 14.2937C13.3547 14.2937 12.7078 15.0411 10.5 15.0411C8.29219 15.0411 7.65 14.2937 6.3 14.2937C2.82187 14.2937 0 17.1056 0 20.5715V22.5146C0 23.7524 1.00781 24.7567 2.25 24.7567H18.75C19.9922 24.7567 21 23.7524 21 22.5146V20.5715C21 17.1056 18.1781 14.2937 14.7 14.2937ZM19.5 22.5146C19.5 22.9257 19.1625 23.262 18.75 23.262H2.25C1.8375 23.262 1.5 22.9257 1.5 22.5146V20.5715C1.5 17.9324 3.65156 15.7884 6.3 15.7884C7.21875 15.7884 8.13281 16.5358 10.5 16.5358C12.8625 16.5358 13.7812 15.7884 14.7 15.7884C17.3484 15.7884 19.5 17.9324 19.5 20.5715V22.5146ZM10.5 12.799C13.8141 12.799 16.5 10.1225 16.5 6.82015C16.5 3.51777 13.8141 0.841309 10.5 0.841309C7.18594 0.841309 4.5 3.51777 4.5 6.82015C4.5 10.1225 7.18594 12.799 10.5 12.799ZM10.5 2.33602C12.9797 2.33602 15 4.34921 15 6.82015C15 9.29109 12.9797 11.3043 10.5 11.3043C8.02031 11.3043 6 9.29109 6 6.82015C6 4.34921 8.02031 2.33602 10.5 2.33602Z" fill="white"/>
</g>
<defs>
<clipPath id="clip0">
<rect y="0.841309" width="21" height="23.9154" fill="white"/>
</clipPath>
</defs>
</svg>
