<svg width="80" height="80" viewBox="0 0 80 80" fill="none" xmlns="http://www.w3.org/2000/svg">
<path opacity="0.35" d="M66.4668 22.217C66.4668 21.353 62.7248 10.857 61.0638 7.70304C60.7108 7.03504 60.0528 6.50604 59.4918 6.20304C59.1608 6.02504 58.9128 5.91504 58.9128 5.91504C58.9128 5.91504 61.7588 8.83304 58.5018 11.146C52.7788 15.211 42.7808 17.575 41.2078 17.931L41.2058 17.929C41.1988 17.932 41.1908 17.935 41.1838 17.936C41.0618 17.965 40.9908 17.979 40.9908 17.979C40.9928 17.982 40.9958 17.985 40.9978 17.988C40.1408 18.215 39.3918 18.529 38.7428 18.904L36.6758 17.818L33.3378 23.537C33.9458 22.416 34.4378 21.528 34.7358 21.024C36.4668 18.084 36.4188 17.701 36.4188 17.701C28.6098 14.904 29.3378 15.031 24.1708 12.806C19.1488 10.645 20.3598 6.31904 20.3598 6.31904C18.2788 7.69504 15.1658 18.602 13.7808 23.272C12.3948 27.942 24.6898 38.371 24.6898 38.371C24.6898 38.371 28.7938 32.024 31.8358 26.332L31.6508 31.225C31.6668 31.386 31.8238 77.478 31.9518 77.478C32.8258 77.675 35.5848 77.178 35.5848 77.178C37.9238 69.388 38.2098 39.747 40.7308 27.595C42.1238 20.875 46.4308 27.324 46.8588 27.26L54.1738 38.183C56.7698 35.934 66.8118 25.159 66.4668 22.217Z" fill="black"/>
<path d="M33.0156 78.346V24.354H45.4186V78.346" fill="white"/>
<path d="M33.0156 78.346V24.354H45.4186V78.346" stroke="black" stroke-width="0.8229" stroke-miterlimit="10"/>
<path d="M20.2644 4.42403C24.0954 1.89203 30.1354 1.65503 39.4864 1.65503C48.8364 1.65503 59.1374 2.32203 60.6864 5.66803C60.6864 5.66803 62.0874 17.656 41.0464 18.003C31.0884 18.165 23.1214 14.802 21.4764 11.949L19.3984 7.01803L20.2644 4.42403Z" fill="url(#paint0_linear)" stroke="black" stroke-width="0.8229" stroke-miterlimit="10"/>
<path d="M29.8516 13.265C29.8516 13.265 35.7526 12.916 39.2646 12.916C42.7766 12.916 50.7856 13.18 50.7856 13.18L50.2236 13.898L41.1606 17.197L36.4386 17.762L32.9426 15.933L29.8516 13.265Z" fill="white" stroke="black" stroke-width="0.8229" stroke-miterlimit="10"/>
<path d="M38.7949 17.085L34.4869 25.248L31.6289 24.402L36.5789 15.921L38.7949 17.085Z" fill="white" stroke="black" stroke-width="0.8229" stroke-miterlimit="10"/>
<path d="M47.0849 25.312C47.0849 25.312 39.3569 26.607 34.4869 25.507C34.2259 25.507 34.2929 24.858 34.2929 24.858C34.2929 24.858 34.2269 17.71 41.1109 16.035L48.5509 18.991L47.0849 25.312Z" fill="white" stroke="black" stroke-width="0.8229" stroke-miterlimit="10"/>
<path d="M39.9118 23.76C40.9871 23.76 41.8588 22.8883 41.8588 21.813C41.8588 20.7377 40.9871 19.866 39.9118 19.866C38.8365 19.866 37.9648 20.7377 37.9648 21.813C37.9648 22.8883 38.8365 23.76 39.9118 23.76Z" stroke="black" stroke-width="0.8229" stroke-miterlimit="10"/>
<path d="M39.9122 22.6899C40.3965 22.6899 40.7892 22.2973 40.7892 21.8129C40.7892 21.3286 40.3965 20.9359 39.9122 20.9359C39.4278 20.9359 39.0352 21.3286 39.0352 21.8129C39.0352 22.2973 39.4278 22.6899 39.9122 22.6899Z" stroke="black" stroke-width="0.8229" stroke-miterlimit="10"/>
<path d="M39.2165 40.893C40.2918 40.893 41.1635 40.0213 41.1635 38.946C41.1635 37.8707 40.2918 36.999 39.2165 36.999C38.1412 36.999 37.2695 37.8707 37.2695 38.946C37.2695 40.0213 38.1412 40.893 39.2165 40.893Z" stroke="black" stroke-width="0.8229" stroke-miterlimit="10"/>
<path d="M39.2178 39.824C39.7027 39.824 40.0958 39.4309 40.0958 38.946C40.0958 38.4611 39.7027 38.068 39.2178 38.068C38.7329 38.068 38.3398 38.4611 38.3398 38.946C38.3398 39.4309 38.7329 39.824 39.2178 39.824Z" stroke="black" stroke-width="0.8229" stroke-miterlimit="10"/>
<path d="M39.2165 68.4639C40.2918 68.4639 41.1635 67.5922 41.1635 66.5169C41.1635 65.4416 40.2918 64.5699 39.2165 64.5699C38.1412 64.5699 37.2695 65.4416 37.2695 66.5169C37.2695 67.5922 38.1412 68.4639 39.2165 68.4639Z" stroke="black" stroke-width="0.8229" stroke-miterlimit="10"/>
<path d="M40.0948 66.5169C40.0948 67.0019 39.7028 67.396 39.2158 67.396C38.7318 67.396 38.3398 67.0019 38.3398 66.5169C38.3398 66.0359 38.7328 65.6429 39.2158 65.6429C39.7028 65.6429 40.0948 66.0349 40.0948 66.5169Z" stroke="black" stroke-width="0.8229" stroke-miterlimit="10"/>
<path d="M60.9715 5.80694C62.6315 8.95994 66.3745 19.4569 66.3745 20.3229C66.7195 23.2629 56.6765 34.0369 54.0775 36.2869L42.9075 18.8079C42.9075 18.8079 41.5445 16.6019 40.8945 16.0819C40.8945 16.0819 52.1825 13.6709 58.4085 9.25094C61.6655 6.93594 58.8185 4.01794 58.8185 4.01794C58.8185 4.01794 59.0665 4.12694 59.3975 4.30794C59.9605 4.60994 60.6185 5.13794 60.9715 5.80694Z" fill="white" stroke="black" stroke-width="0.8229" stroke-miterlimit="10"/>
<path d="M36.323 15.804C36.323 15.804 36.371 16.186 34.64 19.128C32.906 22.069 24.593 36.476 24.593 36.476C24.593 36.476 12.298 26.044 13.683 21.375C15.07 16.705 18.181 5.80095 20.266 4.42395C20.266 4.42395 19.054 8.74795 24.075 10.909C29.242 13.136 28.512 13.0059 36.323 15.804Z" fill="white" stroke="black" stroke-width="0.8229" stroke-miterlimit="10"/>
<path d="M14.0508 19.8939C14.0508 19.8939 15.1958 24.9719 24.0358 33.1779C28.9088 23.9959 33.0988 16.2419 33.8718 15.1379" stroke="#939598" stroke-width="0.8229" stroke-miterlimit="10"/>
<path d="M43.2852 15.62L54.7382 33.259C54.7382 33.259 63.7312 24.194 65.5412 17.892" stroke="#939598" stroke-width="0.8229" stroke-miterlimit="10"/>
<path d="M24.8477 11.2359C24.8477 11.2359 27.1507 10.0179 40.2277 10.0179C53.3047 10.0179 55.0617 11.3189 55.0617 11.3189" stroke="#939598" stroke-width="0.8229" stroke-miterlimit="10"/>
<defs>
<linearGradient id="paint0_linear" x1="19.3978" y1="9.83203" x2="60.7054" y2="9.83203" gradientUnits="userSpaceOnUse">
<stop stop-color="#D5D7D8"/>
<stop offset="0.1822" stop-color="white"/>
<stop offset="0.8283" stop-color="#EFF0F0"/>
<stop offset="1" stop-color="#C2C2C2"/>
</linearGradient>
</defs>
</svg>
