<svg width="80" height="80" viewBox="0 0 80 80" fill="none" xmlns="http://www.w3.org/2000/svg">
<path opacity="0.35" d="M74.5766 38.426C74.5766 37.272 69.5866 23.269 67.3706 19.065C66.8996 18.172 66.0206 17.467 65.2736 17.063C64.8306 16.824 64.4996 16.679 64.4996 16.679C64.4996 16.679 68.2966 20.572 63.9516 23.658C56.3176 29.08 42.9836 32.235 40.8836 32.708H40.8796C40.8706 32.71 40.8616 32.712 40.8516 32.716C40.6886 32.753 40.5916 32.773 40.5916 32.773C40.5966 32.776 40.5996 32.781 40.6036 32.784C39.4576 33.088 38.4616 33.506 37.5936 34.006L34.8356 32.556L30.3836 40.185C31.1946 38.692 31.8516 37.505 32.2486 36.833C34.5586 32.91 34.4956 32.4 34.4956 32.4C24.0766 28.667 25.0496 28.839 18.1576 25.872C11.4586 22.988 13.0756 17.22 13.0756 17.22C10.2966 19.055 6.14556 33.602 4.29756 39.832C2.44956 46.061 18.8506 61.983 18.8506 61.983C18.8506 61.983 24.3236 51.505 28.3786 43.913L31.7876 44.919C31.8096 45.131 31.8756 45.342 32.0466 45.342C37.7576 46.634 46.4106 45.454 48.4206 45.15L58.1786 61.732C61.6426 58.731 75.0396 42.35 74.5766 38.426Z" fill="black"/>
<path d="M12.947 14.69C18.058 11.315 26.114 10.998 38.589 10.998C51.063 10.998 64.801 11.888 66.868 16.349C66.868 16.349 68.735 32.342 40.668 32.803C27.387 33.022 16.76 28.534 14.565 24.727L11.793 18.151L12.947 14.69Z" fill="url(#paint0_linear)" stroke="black" stroke-width="0.935" stroke-miterlimit="10"/>
<path d="M25.7344 26.485C25.7344 26.485 33.6064 26.017 38.2904 26.017C42.9754 26.017 53.6604 26.371 53.6604 26.371L52.9074 27.328L40.8204 31.728L34.5204 32.482L29.8564 30.043L25.7344 26.485Z" fill="#939598" stroke="black" stroke-width="0.935" stroke-miterlimit="10"/>
<path d="M37.6645 31.58L31.9175 42.466L28.1055 41.34L34.7075 30.026L37.6645 31.58Z" fill="white" stroke="black" stroke-width="0.935" stroke-miterlimit="10"/>
<path d="M48.7241 42.552C48.7241 42.552 38.4151 44.282 31.9181 42.812C31.5711 42.812 31.6581 41.947 31.6581 41.947C31.6581 41.947 31.5721 32.411 40.7531 30.179L50.6791 34.119L48.7241 42.552Z" fill="white" stroke="black" stroke-width="0.935" stroke-miterlimit="10"/>
<path d="M39.1498 40.485C40.5852 40.485 41.7488 39.3214 41.7488 37.886C41.7488 36.4506 40.5852 35.287 39.1498 35.287C37.7144 35.287 36.5508 36.4506 36.5508 37.886C36.5508 39.3214 37.7144 40.485 39.1498 40.485Z" stroke="black" stroke-width="0.935" stroke-miterlimit="10"/>
<path d="M39.1495 39.055C39.7951 39.055 40.3185 38.5317 40.3185 37.886C40.3185 37.2404 39.7951 36.717 39.1495 36.717C38.5039 36.717 37.9805 37.2404 37.9805 37.886C37.9805 38.5317 38.5039 39.055 39.1495 39.055Z" stroke="black" stroke-width="0.935" stroke-miterlimit="10"/>
<path d="M67.2448 16.537C69.4598 20.741 74.4518 34.7439 74.4518 35.8979C74.9138 39.82 61.5148 56.2029 58.0508 59.2029L43.1508 33.8769C43.1508 33.8769 41.3318 30.936 40.4648 30.243C40.4648 30.243 55.5238 27.0259 63.8238 21.1279C68.1708 18.0409 64.3738 14.1479 64.3738 14.1479C64.3738 14.1479 64.7048 14.2949 65.1458 14.5329C65.8978 14.9379 66.7748 15.644 67.2448 16.537Z" fill="white" stroke="black" stroke-width="0.935" stroke-miterlimit="10"/>
<path d="M34.3666 29.8709C34.3666 29.8709 34.4296 30.3809 32.1196 34.3039C29.8086 38.2259 18.7217 59.4559 18.7217 59.4559C18.7217 59.4559 2.32065 43.5329 4.16865 37.3029C6.01665 31.0729 10.1676 16.5259 12.9466 14.6899C12.9466 14.6899 11.3296 20.4579 18.0296 23.3419C24.9206 26.3099 23.9487 26.1379 34.3666 29.8709Z" fill="white" stroke="black" stroke-width="0.935" stroke-miterlimit="10"/>
<path d="M4.65625 35.325C4.65625 35.325 6.18425 44.109 17.9762 55.056C24.4752 42.81 30.0623 30.456 31.0972 28.98" stroke="#939598" stroke-width="0.7254" stroke-miterlimit="10"/>
<path d="M43.6523 29.624L58.9283 55.164C58.9283 55.164 65.8633 47.695 68.4623 43.801C71.0633 39.905 73.1213 36.117 73.3373 32.654" stroke="#939598" stroke-width="0.7254" stroke-miterlimit="10"/>
<path d="M19.0586 23.778C19.0586 23.778 22.1306 22.153 39.5736 22.153C57.0166 22.153 59.3626 23.885 59.3626 23.885" stroke="#939598" stroke-width="0.7254" stroke-miterlimit="10"/>
<defs>
<linearGradient id="paint0_linear" x1="11.793" y1="21.9043" x2="66.8936" y2="21.9043" gradientUnits="userSpaceOnUse">
<stop stop-color="#D5D7D8"/>
<stop offset="0.1822" stop-color="white"/>
<stop offset="0.8283" stop-color="#EFF0F0"/>
<stop offset="1" stop-color="#C2C2C2"/>
</linearGradient>
</defs>
</svg>
