<svg width="80" height="80" viewBox="0 0 80 80" fill="none" xmlns="http://www.w3.org/2000/svg">
<path opacity="0.35" d="M76.7165 41.617C76.7645 41.641 76.8135 41.663 76.8585 41.689C76.7975 41.65 76.7295 41.605 76.6675 41.564C76.5295 41.421 76.3585 41.308 76.1555 41.234C69.9365 37.21 56.2475 28.441 56.2475 28.441C56.2475 28.441 55.3965 27.74 54.0045 27.131C53.0435 26.318 50.1425 23.996 45.4965 21.397C39.7175 18.164 33.4755 14.469 33.4755 14.469L3.1875 29.48C3.1875 29.48 6.4245 33.175 11.0485 35.946C15.4385 38.577 21.4945 45.162 23.4805 47.798C23.5875 48.029 23.7425 48.199 23.8555 48.303C24.0105 48.496 24.1725 48.639 24.3445 48.737L45.0345 67.701C45.0345 67.701 45.6515 67.971 48.3485 66.276C57.7115 60.815 73.8565 46.878 75.9375 44.568C77.1345 43.24 77.2065 42.194 76.7165 41.617Z" fill="black"/>
<path d="M3.05078 27.2951C3.05078 27.2951 6.28678 30.9901 10.9118 33.7611C15.5358 36.5321 22.0098 43.6921 23.6278 46.0011C25.2458 48.3111 28.0208 44.3841 28.0208 44.3841L44.4348 30.5281L54.2248 25.2551C54.2248 25.2551 51.1398 22.4451 45.3598 19.2121C39.5808 15.9791 33.3378 12.2841 33.3378 12.2841" fill="white"/>
<path d="M3.05078 27.2951C3.05078 27.2951 6.28678 30.9901 10.9118 33.7611C15.5358 36.5321 22.0098 43.6921 23.6278 46.0011C25.2458 48.3111 28.0208 44.3841 28.0208 44.3841L44.4348 30.5281L54.2248 25.2551C54.2248 25.2551 51.1398 22.4451 45.3598 19.2121C39.5808 15.9791 33.3378 12.2841 33.3378 12.2841" stroke="black" stroke-width="0.6239" stroke-miterlimit="10"/>
<path d="M34.2627 30.99L17.8477 19.905" stroke="#939598" stroke-width="0.6239" stroke-miterlimit="10"/>
<path d="M40.0413 27.295L24.3203 16.209" stroke="#939598" stroke-width="0.6239" stroke-miterlimit="10"/>
<path d="M45.8196 26.1399L37.2656 19.674" stroke="#939598" stroke-width="0.6239" stroke-miterlimit="10"/>
<path d="M44.8963 65.516C44.8963 65.516 45.5123 65.786 48.2093 64.091C57.5723 58.63 73.7183 44.692 75.7993 42.383C77.8793 40.073 76.5703 38.612 74.7973 38.996C73.4103 38.688 72.0233 38.688 72.0233 38.688L62.3133 42.46L56.7643 43.615L53.9123 47.541L42.7383 59.473C42.7383 59.473 43.6623 64.476 44.8963 65.516Z" fill="url(#paint0_linear)" stroke="black" stroke-width="0.6239" stroke-miterlimit="10"/>
<path d="M45.0508 63.168C45.0508 63.168 47.6698 61.937 51.3688 59.396C55.0678 56.856 64.5488 49.543 67.3998 47.156C70.2508 44.77 75.7988 40.397 74.7968 38.997C74.0258 37.919 72.8698 37.996 72.8698 37.996" stroke="#939598" stroke-width="0.6239" stroke-miterlimit="10"/>
<path d="M23.8595 46.2309L44.8995 65.5149C44.8995 65.5149 43.8585 64.475 45.9395 61.588C48.0195 58.702 53.4535 52.0049 58.5395 48.0779C59.0025 47.7309 58.5395 43.5749 58.5395 43.5749L40.6215 27.8719C40.6215 27.8719 27.5595 34.9159 23.3975 44.3839C22.8195 45.5379 23.8595 46.2309 23.8595 46.2309Z" fill="white" stroke="black" stroke-width="0.6239" stroke-miterlimit="10"/>
<path d="M25.3242 47.617C25.3242 47.617 25.4792 46.001 27.4062 42.999C30.3332 37.995 37.4232 33.145 37.4232 33.145" stroke="#939598" stroke-width="0.6239" stroke-miterlimit="10"/>
<path d="M42.5105 63.476C42.5105 63.476 42.2005 62.167 44.1285 59.396C47.0575 55.24 51.2955 50.62 55.0705 47.695C56.0725 46.926 56.3035 46.233 56.1495 45.308C55.9965 44.385 55.7645 43.384 55.7645 43.384" stroke="#939598" stroke-width="0.6239" stroke-miterlimit="10"/>
<path d="M34.0312 31.144L50.5613 43.114C50.5613 43.114 51.6013 43.923 52.7573 43.923C53.9133 43.923 62.3523 44.384 62.3523 44.384C62.3523 44.384 63.0452 44.269 64.0853 43.692C65.1263 43.115 73.0223 37.311 76.7213 39.505C70.9033 35.732 56.1103 26.255 56.1103 26.255C56.1103 26.255 53.4513 24.062 49.8293 24.062C46.2083 24.062 40.6213 26.564 34.0312 31.144Z" fill="white" stroke="black" stroke-width="0.6239" stroke-miterlimit="10"/>
<path d="M55.6883 25.986C55.6883 25.986 52.8373 24.986 49.6003 26.14C45.6753 27.54 38.6562 31.99 38.6562 31.99L52.0662 41.458C52.0662 41.458 53.2213 42.151 54.3003 42.151C55.3793 42.151 60.6973 42.459 60.6973 42.459C60.6973 42.459 61.6203 42.305 62.8543 41.458C64.0863 40.612 70.3313 36.378 74.1063 37.763" stroke="#939598" stroke-width="0.6239" stroke-miterlimit="10"/>
<path d="M53.171 32.063C53.264 32.229 53.241 32.418 53.121 32.485L49.459 34.527C49.339 34.594 49.166 34.515 49.072 34.348C48.98 34.182 49.003 33.994 49.123 33.926L52.784 31.884C52.904 31.817 53.078 31.897 53.171 32.063Z" stroke="black" stroke-width="0.6239" stroke-miterlimit="10"/>
<path d="M49.5196 36.264C50.9025 36.264 52.0236 35.5575 52.0236 34.686C52.0236 33.8145 50.9025 33.108 49.5196 33.108C48.1367 33.108 47.0156 33.8145 47.0156 34.686C47.0156 35.5575 48.1367 36.264 49.5196 36.264Z" fill="white" stroke="black" stroke-width="0.6239" stroke-miterlimit="10"/>
<path d="M49.5196 35.8791C50.9025 35.8791 52.0236 35.1721 52.0236 34.3001C52.0236 33.428 50.9025 32.7211 49.5196 32.7211C48.1367 32.7211 47.0156 33.428 47.0156 34.3001C47.0156 35.1721 48.1367 35.8791 49.5196 35.8791Z" fill="white" stroke="black" stroke-width="0.6239" stroke-miterlimit="10"/>
<path d="M49.5196 35.495C50.9025 35.495 52.0236 34.7881 52.0236 33.916C52.0236 33.044 50.9025 32.337 49.5196 32.337C48.1367 32.337 47.0156 33.044 47.0156 33.916C47.0156 34.7881 48.1367 35.495 49.5196 35.495Z" fill="white" stroke="black" stroke-width="0.6239" stroke-miterlimit="10"/>
<path d="M49.5198 34.607C50.2858 34.607 50.9068 34.2797 50.9068 33.876C50.9068 33.4723 50.2858 33.145 49.5198 33.145C48.7538 33.145 48.1328 33.4723 48.1328 33.876C48.1328 34.2797 48.7538 34.607 49.5198 34.607Z" stroke="black" stroke-width="0.6239" stroke-miterlimit="10"/>
<defs>
<linearGradient id="paint0_linear" x1="42.7386" y1="52.1094" x2="76.8655" y2="52.1094" gradientUnits="userSpaceOnUse">
<stop stop-color="#D5D7D8"/>
<stop offset="0.1822" stop-color="white"/>
<stop offset="0.8283" stop-color="#EFF0F0"/>
<stop offset="1" stop-color="#C2C2C2"/>
</linearGradient>
</defs>
</svg>
