<svg width="80" height="80" viewBox="0 0 80 80" fill="none" xmlns="http://www.w3.org/2000/svg">
<path d="M69.0581 22.2611C65.1421 18.5791 58.6851 12.2031 58.6851 12.2031C58.0421 11.0611 47.6241 7.42811 47.6241 7.42811L33.9251 6.78711C33.9251 6.78711 22.7521 11.5761 22.2731 12.0341C20.2901 14.0891 10.9961 22.4911 10.9961 22.4911L13.2991 44.1251L22.9261 33.9891C22.3891 57.8431 21.3791 68.1761 21.3791 68.1761C21.3791 68.1761 24.3611 73.2141 40.8541 73.2141C57.3431 73.2141 59.2451 68.6471 59.2451 68.6471C58.3001 62.9411 57.9201 53.2141 56.9521 35.2261C56.9521 35.2261 62.3771 41.8251 65.8331 45.5071L69.0581 22.2611Z" fill="white"/>
<path opacity="0.35" d="M14.0625 44.1321L15.7935 46.1081L23.0425 38.4041L22.9245 34.5781L14.0625 44.1321Z" fill="black"/>
<path opacity="0.35" d="M25.5977 71.1539L24.6367 72.2089C24.6367 72.2089 27.6187 77.2459 44.1117 77.2459C60.6027 77.2459 62.5537 69.6769 62.5537 69.6769C62.5537 69.6769 62.1157 65.4879 60.5697 51.8199C59.9647 46.4739 59.6037 43.1519 60.1277 43.8839C60.7457 44.7489 61.6107 46.2199 63.2177 48.0729C64.0827 46.0969 64.8027 45.0909 64.6327 44.8709C62.0367 41.5369 57.0777 36.9839 56.9807 35.9299C57.0677 45.8079 57.7437 57.0059 57.9217 55.3469C57.2787 54.2059 59.4667 69.2349 59.4667 69.2349C59.4667 69.2349 57.6937 72.9399 45.2447 73.3159C32.8017 73.6909 27.8217 72.3769 27.8217 72.3769" fill="black"/>
<path d="M69.0581 22.851C65.1421 19.168 58.6851 12.793 58.6851 12.793C58.0421 11.651 47.6241 8.01798 47.6241 8.01798L33.9251 7.37598C33.9251 7.37598 22.7521 12.165 22.2731 12.623C20.2901 14.678 10.9961 23.08 10.9961 23.08" fill="white"/>
<path d="M69.0581 22.851C65.1421 19.168 58.6851 12.793 58.6851 12.793C58.0421 11.651 47.6241 8.01798 47.6241 8.01798L33.9251 7.37598C33.9251 7.37598 22.7521 12.165 22.2731 12.623C20.2901 14.678 10.9961 23.08 10.9961 23.08" stroke="black" stroke-width="0.8248" stroke-miterlimit="10"/>
<path d="M13.3008 44.7151L22.9278 34.5781C22.3908 58.4331 21.3808 68.7661 21.3808 68.7661C21.3808 68.7661 24.3628 73.8031 40.8558 73.8031C57.3448 73.8031 59.2468 69.2341 59.2468 69.2341C58.3018 63.5311 57.9218 53.8031 56.9538 35.8141C56.9538 35.8141 62.3788 42.4131 65.8348 46.0951" stroke="black" stroke-width="0.8248" stroke-miterlimit="10"/>
<path d="M40.4546 14.193L32.3546 16.254C32.3546 16.254 30.8396 12.489 31.4226 8.17401L32.7266 4.32101C34.6496 2.40201 40.7306 2.78601 41.4426 2.78601C42.1546 2.78601 46.5666 2.72701 47.6496 4.29201C48.7316 5.85701 49.1836 8.74301 49.1836 8.74301C49.1836 8.74301 48.7866 16.367 48.0036 16.254C46.1136 15.987 40.4546 14.193 40.4546 14.193Z" fill="white" stroke="black" stroke-width="0.8248" stroke-miterlimit="10"/>
<path d="M40.4546 14.193C40.4546 14.193 35.0336 10.096 32.7266 4.32104L40.4546 14.193Z" fill="white"/>
<path d="M40.4546 14.193C40.4546 14.193 35.0336 10.096 32.7266 4.32104" stroke="black" stroke-width="0.8248" stroke-miterlimit="10"/>
<path d="M40.4531 14.1929C45.1131 10.7509 47.4961 4.10791 47.4961 4.10791L40.4531 14.1929Z" fill="white"/>
<path d="M40.4531 14.1929C45.1131 10.7509 47.4961 4.10791 47.4961 4.10791" stroke="black" stroke-width="0.8248" stroke-miterlimit="10"/>
<path d="M22.9102 26.0791C22.9102 26.0791 23.2192 33.1651 22.9102 38.6591" stroke="black" stroke-width="0.8248" stroke-miterlimit="10"/>
<path d="M57.1947 40.9879C56.5647 34.4879 56.6996 27.1279 56.6996 27.1279" stroke="black" stroke-width="0.8248" stroke-miterlimit="10"/>
<path d="M39.3203 14.75V73.724" stroke="black" stroke-width="0.8248" stroke-miterlimit="10"/>
<path d="M41.6016 14.637V73.724" stroke="black" stroke-width="0.8248" stroke-miterlimit="10"/>
</svg>
