<svg width="100" height="80" viewBox="0 0 100 80" fill="none" xmlns="http://www.w3.org/2000/svg">
<path d="M50 0.0734863C22.43 0.0734863 0 12.0139 0 26.6912V45.4802C0 59.4044 19.2333 70.6434 45 71.9649V78.361C45 79.2257 45.7462 79.9267 46.6667 79.9267C47.4467 79.9267 45.3633 81.2012 72.6533 62.4013C73.0816 62.1063 73.3346 61.6373 73.3346 61.1385C73.3346 60.6396 73.0816 60.1707 72.6533 59.8757C64.4217 54.2046 55.8783 48.3267 47.6533 42.6525C47.1469 42.303 46.4744 42.2508 45.9138 42.5174C45.3533 42.7841 45 43.3242 45 43.9145V50.0412C31.9883 49.3539 15.3817 45.2156 7.33333 36.0935C14.775 27.6307 31.655 21.994 50 21.994C68.345 21.994 85.2367 27.6307 92.6667 36.1029C87.6667 41.8101 78.32 46.332 66.7517 48.5961C66.0182 48.6929 65.4408 49.2329 65.3343 49.9215C65.2278 50.6101 65.6179 51.2821 66.2917 51.571L80.6017 58.4603L73.0667 65.9915C72.4588 66.4776 72.3031 67.3003 72.6954 67.9534C73.0877 68.6065 73.9179 68.9066 74.675 68.669C90.2967 63.9999 100 55.1143 100 45.4802V26.6912C100 12.0139 77.57 0.0734863 50 0.0734863ZM46.6667 53.2463C47.1096 53.2493 47.5354 53.0853 47.8486 52.791C48.1619 52.4967 48.3365 52.0967 48.3333 51.6806V47.0068C52.8783 50.1383 64.3 58.0046 68.8483 61.1377L48.3333 75.2702V70.4696C48.3339 69.627 47.6246 68.935 46.7283 68.9038C22.395 68.0568 3.33333 57.7667 3.33333 45.4802V36.3206C11.7433 47.904 32.14 52.9958 46.6667 53.2463ZM96.6667 45.4802C96.6667 52.3131 90.58 58.8157 80.3783 63.253L84.545 59.0788C84.9038 58.7201 85.0622 58.2239 84.9727 57.739C84.8832 57.2541 84.5563 56.8369 84.09 56.6127L71.77 50.6848C81 48.3268 91.2717 43.7767 96.6667 36.3206V45.4802ZM94.6533 33.4239C76.3967 14.0259 23.615 14.0087 5.34667 33.4239C4.05434 31.3862 3.35967 29.0631 3.33333 26.6912C3.33333 13.7409 24.2683 3.20498 50 3.20498C75.7317 3.20498 96.6667 13.7409 96.6667 26.6912C96.6404 29.0631 95.9457 31.3862 94.6533 33.4239Z" fill="#555555"/>
</svg>
