<svg width="80" height="80" viewBox="0 0 80 80" fill="none" xmlns="http://www.w3.org/2000/svg">
<path d="M69.0581 22.261C65.1421 18.579 58.6851 12.203 58.6851 12.203C58.0421 11.061 47.6241 7.42799 47.6241 7.42799L33.9251 6.78699C33.9251 6.78699 22.7521 11.576 22.2731 12.034C20.2901 14.089 10.9961 22.491 10.9961 22.491L13.2991 44.125L22.9261 33.989C22.3891 57.843 21.3791 68.176 21.3791 68.176C21.3791 68.176 24.3611 73.214 40.8541 73.214C57.3431 73.214 59.2451 68.647 59.2451 68.647C58.3001 62.941 57.9201 53.214 56.9521 35.226C56.9521 35.226 62.3771 41.825 65.8331 45.507L69.0581 22.261Z" fill="white"/>
<path opacity="0.35" d="M14.0625 44.132L15.7935 46.108L23.0425 38.404L22.9245 34.578L14.0625 44.132Z" fill="black"/>
<path opacity="0.35" d="M25.5977 71.1541L24.6367 72.2091C24.6367 72.2091 27.6187 77.2461 44.1117 77.2461C60.6027 77.2461 62.5537 69.6771 62.5537 69.6771C62.5537 69.6771 62.1157 65.4881 60.5697 51.8201C59.9647 46.4741 59.6037 43.1521 60.1277 43.8841C60.7457 44.7491 61.6107 46.2201 63.2177 48.0731C64.0827 46.0971 64.8027 45.0911 64.6327 44.8711C62.0367 41.5371 57.0777 36.9841 56.9807 35.9301C57.0677 45.8081 57.7437 57.0061 57.9217 55.3471C57.2787 54.2061 59.4667 69.2351 59.4667 69.2351C59.4667 69.2351 57.6937 72.9401 45.2447 73.3161C32.8017 73.6911 27.8217 72.3771 27.8217 72.3771" fill="black"/>
<path d="M69.0581 22.851C65.1421 19.168 58.6851 12.793 58.6851 12.793C58.0421 11.651 47.6241 8.01798 47.6241 8.01798L33.9251 7.37598C33.9251 7.37598 22.7521 12.165 22.2731 12.623C20.2901 14.678 10.9961 23.08 10.9961 23.08" fill="white"/>
<path d="M69.0581 22.851C65.1421 19.168 58.6851 12.793 58.6851 12.793C58.0421 11.651 47.6241 8.01798 47.6241 8.01798L33.9251 7.37598C33.9251 7.37598 22.7521 12.165 22.2731 12.623C20.2901 14.678 10.9961 23.08 10.9961 23.08" stroke="black" stroke-width="0.8248" stroke-miterlimit="10"/>
<path d="M13.3008 44.715L22.9278 34.578C22.3908 58.433 21.3808 68.766 21.3808 68.766C21.3808 68.766 24.3628 73.803 40.8558 73.803C57.3448 73.803 59.2468 69.234 59.2468 69.234C58.3018 63.531 57.9218 53.803 56.9538 35.814C56.9538 35.814 62.3788 42.413 65.8348 46.095" stroke="black" stroke-width="0.8248" stroke-miterlimit="10"/>
<path d="M40.4546 14.193L32.3546 16.254C32.3546 16.254 30.8396 12.489 31.4226 8.17401L32.7266 4.32101C34.6496 2.40201 40.7306 2.78601 41.4426 2.78601C42.1546 2.78601 46.5666 2.72701 47.6496 4.29201C48.7316 5.85701 49.1836 8.74301 49.1836 8.74301C49.1836 8.74301 48.7866 16.367 48.0036 16.254C46.1136 15.987 40.4546 14.193 40.4546 14.193Z" fill="white" stroke="black" stroke-width="0.8248" stroke-miterlimit="10"/>
<path d="M40.4546 14.193C40.4546 14.193 35.0336 10.096 32.7266 4.32104L40.4546 14.193Z" fill="white"/>
<path d="M40.4546 14.193C40.4546 14.193 35.0336 10.096 32.7266 4.32104" stroke="black" stroke-width="0.8248" stroke-miterlimit="10"/>
<path d="M40.4531 14.193C45.1131 10.751 47.4961 4.10803 47.4961 4.10803L40.4531 14.193Z" fill="white"/>
<path d="M40.4531 14.193C45.1131 10.751 47.4961 4.10803 47.4961 4.10803" stroke="black" stroke-width="0.8248" stroke-miterlimit="10"/>
<path d="M22.9102 26.079C22.9102 26.079 23.2192 33.165 22.9102 38.659" stroke="black" stroke-width="0.8248" stroke-miterlimit="10"/>
<path d="M57.1947 40.9881C56.5647 34.4881 56.6996 27.1281 56.6996 27.1281" stroke="black" stroke-width="0.8248" stroke-miterlimit="10"/>
<path d="M39.3203 14.75V73.724" stroke="black" stroke-width="0.8248" stroke-miterlimit="10"/>
<path d="M41.6016 14.637V73.724" stroke="black" stroke-width="0.8248" stroke-miterlimit="10"/>
</svg>
