<svg width="80" height="80" viewBox="0 0 80 80" fill="none" xmlns="http://www.w3.org/2000/svg">
<path opacity="0.35" d="M34.9353 10.681L23.2752 15.933C23.2752 15.933 23.8662 30.616 21.9412 33.896C22.9152 49.86 21.1562 72.113 21.1562 72.113C21.1562 72.113 24.3143 77.154 41.7763 77.154C59.2383 77.154 61.7822 72.113 61.7822 72.113C61.7822 72.113 60.0072 60.766 59.7422 55.263C59.7282 54.924 66.6263 68.825 68.6253 74.049C68.6863 74.211 74.1603 71.591 79.5433 68.362C78.7763 66.52 78.3123 65.906 78.3123 65.906L70.9323 69.746C70.9323 69.746 60.3132 48.207 56.7822 39.104C49.7382 30.114 47.6762 28.15 47.8552 26.493C47.2132 25.35 48.6453 11.323 48.6453 11.323L34.9353 10.681Z" fill="black"/>
<path opacity="0.35" d="M9.85547 69.292C10.1835 69.594 11.2595 72.051 11.2595 72.051C11.2595 72.051 18.1915 68.233 20.1805 66.214C21.0825 65.297 14.6425 50.698 14.6425 50.698L20.3295 41.789L18.3535 39.249L12.0275 50.082L17.2565 64.368L12.4875 68.517L9.85547 69.292Z" fill="black"/>
<path d="M56.3654 12.823L56.3124 12.885C56.3124 12.885 59.2364 15.951 60.9704 19.069C62.9344 22.602 65.3274 29.545 65.3274 29.545C65.3274 29.545 73.4794 50.491 73.9174 51.597C74.3544 52.703 76.5344 60.461 76.7564 61.406C76.9714 62.349 78.8624 65.443 78.8624 65.443L70.3514 69.98L68.3134 65.765C68.3134 65.765 66.6074 61.889 65.2124 59.02C63.2764 55.038 63.5034 56.63 57.3524 40.128L55.6424 31.252L55.4414 18.027L55.8074 13.087L55.9604 12.885" fill="#939598"/>
<path d="M56.3654 12.823L56.3124 12.885C56.3124 12.885 59.2364 15.951 60.9704 19.069C62.9344 22.602 65.3274 29.545 65.3274 29.545C65.3274 29.545 73.4794 50.491 73.9174 51.597C74.3544 52.703 76.5344 60.461 76.7564 61.406C76.9714 62.349 78.8624 65.443 78.8624 65.443L70.3514 69.98L68.3134 65.765C68.3134 65.765 66.6074 61.889 65.2124 59.02C63.2764 55.038 63.5034 56.63 57.3524 40.128L55.6424 31.252L55.4414 18.027L55.8074 13.087L55.9604 12.885" stroke="black" stroke-width="0.9769" stroke-miterlimit="10"/>
<path d="M11.9764 50.249L14.9734 59.976L17.2984 64.048C17.2984 64.048 14.7304 68.067 10.0264 69.568C5.41844 62.06 4.64244 59.349 4.30244 58.087C3.96344 56.829 4.83644 36.29 5.41844 32.512C5.41844 32.512 19.1934 12.659 19.9214 12.333C20.3354 12.147 20.7634 12.117 21.6834 11.68C22.6054 11.244 20.8864 27.716 20.8864 27.716L19.7704 36.29L19.0094 37.087L11.9764 50.249Z" fill="#939598" stroke="black" stroke-width="0.9769" stroke-miterlimit="10"/>
<path d="M7.96094 66.202C11.0049 64.611 15.5199 60.614 15.5199 60.614" stroke="black" stroke-width="0.9769" stroke-miterlimit="10"/>
<path d="M69.1328 65.542L76.7548 61.406" stroke="black" stroke-width="0.9769" stroke-miterlimit="10"/>
<path d="M31.489 7.23596L19.827 12.488C19.827 12.488 20.418 34.746 18.494 38.028C19.467 53.994 17.707 68.669 17.707 68.669C17.707 68.669 20.865 73.709 38.329 73.709C55.791 73.709 58.335 68.669 58.335 68.669C58.335 68.669 55.74 58.409 57.124 38.877C55.186 27.953 55.909 15.939 56.262 12.658C55.619 11.515 45.196 7.87896 45.196 7.87896L31.489 7.23596Z" fill="white" stroke="black" stroke-width="0.9769" stroke-miterlimit="10"/>
<path d="M38.0198 14.059L29.9148 16.122C29.9148 16.122 28.3968 12.352 28.9818 8.03597L30.2848 4.18197C32.2098 2.25997 38.2938 2.64397 39.0068 2.64397C39.7208 2.64397 44.1378 2.58497 45.2198 4.15197C46.3028 5.71597 46.7538 8.60497 46.7538 8.60497C46.7538 8.60497 46.3578 16.235 45.5728 16.123C43.6828 15.853 38.0198 14.059 38.0198 14.059Z" fill="white" stroke="black" stroke-width="0.9769" stroke-miterlimit="10"/>
<path d="M38.0192 14.059C38.0192 14.059 32.5952 9.95901 30.2852 4.18201" stroke="black" stroke-width="0.9769" stroke-miterlimit="10"/>
<path d="M38.0195 14.059C42.6835 10.614 45.0695 3.96802 45.0695 3.96802" stroke="black" stroke-width="0.9769" stroke-miterlimit="10"/>
</svg>
