<svg width="146" height="96" viewBox="0 0 146 96" fill="none" xmlns="http://www.w3.org/2000/svg">
<path fill-rule="evenodd" clip-rule="evenodd" d="M96.8042 36.1849C96.8188 35.9081 96.6918 35.7801 96.4234 35.8009C94.2276 38.2985 92.5023 40.0771 91.2473 41.1365C87.7362 44.3502 85.5415 45.7593 84.6632 45.3638C84.0701 44.8643 84.3073 43.7101 85.375 41.9014C87.7144 37.722 88.8809 34.6238 88.8746 32.607C88.9767 30.822 88.4571 29.0567 87.4042 27.6117C85.4708 28.5733 84.2543 28.5077 83.7548 27.415C83.5758 26.7739 83.7485 26.317 84.273 26.0444C85.0243 25.7759 85.9609 26.1006 87.0827 27.0185C88.4293 26.7187 90.0849 25.0588 92.0496 22.0387C94.0372 18.9874 95.1392 16.3045 95.3557 13.99C95.5846 10.4517 94.1673 7.84056 91.1037 6.15672C90.3037 5.75484 89.4675 5.42973 88.6062 5.18575C85.8765 4.5207 83.0537 4.32434 80.2583 4.60504C76.6058 4.80989 73.0156 5.63992 69.6439 7.059C66.0247 8.59461 62.6661 10.6832 59.6882 13.2501C55.7879 16.4887 53.1052 19.9428 51.64 23.6123C50.1498 26.9987 49.5723 30.0229 49.9074 32.685C50.5026 36.3191 53.0001 37.9437 57.3999 37.5586C62.1139 36.8155 66.6823 34.422 71.1049 30.3778C73.8459 27.3744 75.5598 24.4865 76.2467 21.714C76.7649 18.4775 75.4121 16.6469 72.1882 16.2223C68.2671 16.3139 64.2087 19.0259 60.0129 24.3584C58.9348 25.728 57.6059 28.1008 56.0262 31.4768C55.5725 32.2865 55.3644 32.3343 55.4019 31.6204C56.0096 28.9333 57.3333 26.2483 59.3729 23.5654C61.6477 20.639 64.1952 18.4255 67.0153 16.9248C69.4482 15.6239 71.594 15.2076 73.4526 15.6759C75.6858 16.1047 76.8856 17.7271 77.0521 20.5433C77.1187 22.2417 76.4943 24.2461 75.179 26.5564C72.7626 30.6317 69.6137 33.7299 65.7322 35.8508C61.1659 38.5254 57.1678 39.3163 53.7379 38.2236C50.4537 37.1683 48.7835 35.0006 48.7273 31.7203C48.7017 28.786 49.35 25.885 50.6223 23.2407C52.6949 19.1344 55.5933 15.5004 59.1356 12.5663C62.1805 9.89412 65.636 7.72986 69.3692 6.15672C72.8067 4.72074 76.4661 3.88847 80.1865 3.69652C83.0917 3.55032 86.0031 3.80881 88.8372 4.46455C89.7573 4.71009 90.6537 5.03712 91.5158 5.44176C93.5492 6.29749 95.2549 7.7823 96.3828 9.67842C97.1182 11.0175 97.5699 12.4937 97.7096 14.015C97.9552 17.2953 96.4983 20.4819 93.3389 23.5748C91.6623 25.1364 89.7698 26.4486 87.7196 27.4712L86.9641 27.8052C87.8694 28.9292 87.8694 30.5537 86.9641 32.6788C86.3647 34.4167 84.9338 37.2776 82.6715 41.2614C81.5018 44.142 81.8629 45.804 83.7548 46.2474C85.4343 46.5679 88.0359 45.036 91.5595 41.6517C93.4172 39.9368 95.1707 38.1123 96.8105 36.188L96.8042 36.1849ZM85.4219 27.5617C85.7833 27.5029 86.1387 27.4109 86.4833 27.287C86.3289 27.076 86.13 26.9014 85.9007 26.7758C85.6715 26.6501 85.4174 26.5762 85.1565 26.5595C84.6091 26.5595 84.3469 26.725 84.3698 27.0559C84.5467 27.3994 84.8974 27.569 85.4219 27.5648V27.5617Z" fill="#333333" stroke="#333333" stroke-width="0.22" stroke-miterlimit="22.93"/>
<path fill-rule="evenodd" clip-rule="evenodd" d="M92.9384 3.43429C92.9072 1.22386 93.0134 0 93.0134 0C91.1402 1.81705 90.3816 2.30722 90.3816 2.30722C86.9257 9.7565 84.9558 13.8589 84.9558 13.8589L75.278 34.1525L69.6367 46.1662L69.9021 46.2942C77.5476 31.9576 85.5989 17.9083 92.9384 3.43429ZM90.3691 4.91103C91.6647 2.38215 92.3265 2.45395 91.1433 5.22324C90.7531 5.06401 90.3691 4.91103 90.3691 4.91103ZM89.8946 5.71966C89.8446 5.63848 90.1006 5.76649 90.7032 6.03186C89.1329 8.57636 88.5897 8.23605 89.8946 5.70716V5.71966Z" fill="#333333"/>
<path d="M35.139 76.8031H25.7095L13.7534 67.5247C12.8678 67.5442 12.1471 67.5539 11.5914 67.5539C11.3657 67.5539 11.1226 67.5539 10.8621 67.5539C10.6016 67.5442 10.3324 67.5344 10.0546 67.5247V73.2908C10.0546 74.5396 10.2977 75.3152 10.7839 75.6177C11.4438 76.047 12.4337 76.2616 13.7534 76.2616H15.134V76.8031H0V76.2616H1.32846C2.82189 76.2616 3.88986 75.9884 4.53238 75.4421C4.89706 75.1396 5.07939 74.4225 5.07939 73.2908V60.4707C5.07939 59.2219 4.83628 58.4462 4.35004 58.1438C3.67279 57.7145 2.6656 57.4999 1.32846 57.4999H0V56.9584H12.8678C16.6187 56.9584 19.3798 57.1145 21.1511 57.4267C22.9398 57.7291 24.4506 58.295 25.6835 59.1243C26.9338 59.9439 27.559 60.9244 27.559 62.0659C27.559 63.2855 26.847 64.344 25.423 65.2416C24.0164 66.1392 21.8284 66.7734 18.8589 67.1442L26.1524 72.8371C27.8194 74.1445 29.2521 75.0128 30.4503 75.4421C31.6485 75.8714 33.2114 76.1445 35.139 76.2616V76.8031ZM10.0546 66.6027C10.3845 66.6027 10.6711 66.6076 10.9142 66.6173C11.1573 66.6173 11.357 66.6173 11.5133 66.6173C14.8822 66.6173 17.4175 66.2075 19.1194 65.388C20.8385 64.5684 21.6981 63.5245 21.6981 62.2562C21.6981 61.0171 21.0035 60.0122 19.6143 59.2414C18.2424 58.4609 16.419 58.0706 14.1442 58.0706C13.137 58.0706 11.7738 58.1633 10.0546 58.3487V66.6027Z" fill="#333333"/>
<path d="M51.1326 76.2616V76.8031H35.9986V76.2616H37.2489C38.7076 76.2616 39.7669 76.0226 40.4268 75.5445C40.8435 75.2323 41.0519 74.481 41.0519 73.2908V60.4707C41.0519 59.4658 40.939 58.8024 40.7133 58.4804C40.5396 58.2365 40.1836 58.0267 39.6453 57.8511C38.8812 57.6169 38.0824 57.4999 37.2489 57.4999H35.9986V56.9584H51.1326V57.4999H49.8562C48.4149 57.4999 47.3643 57.7389 46.7044 58.217C46.2702 58.5292 46.0532 59.2804 46.0532 60.4707V73.2908C46.0532 74.2957 46.166 74.9591 46.3918 75.2811C46.5654 75.525 46.9301 75.7348 47.4858 75.9104C48.2325 76.1445 49.0227 76.2616 49.8562 76.2616H51.1326Z" fill="#333333"/>
<path d="M53.3467 76.8031V76.2616H54.6751C56.1685 76.2616 57.2278 75.9933 57.853 75.4567C58.235 75.1347 58.4261 74.4128 58.4261 73.2908V60.4707C58.4261 59.2316 58.1829 58.456 57.6967 58.1438C57.0194 57.7145 56.0123 57.4999 54.6751 57.4999H53.3467V56.9584H67.7253C73.0043 56.9584 77.0158 57.295 79.7595 57.9682C82.5206 58.6414 84.7347 59.7634 86.4018 61.3342C88.0862 62.905 88.9285 64.7197 88.9285 66.7783C88.9285 69.5394 87.435 71.8468 84.4482 73.7005C81.0966 75.7689 75.9912 76.8031 69.1319 76.8031H53.3467ZM63.4273 75.3689C65.6327 75.6421 67.4821 75.7787 68.9756 75.7787C73.0043 75.7787 76.3472 74.9835 79.0041 73.3932C81.661 71.8029 82.9895 69.6467 82.9895 66.9246C82.9895 64.1831 81.661 62.022 79.0041 60.4414C76.3472 58.8609 72.9349 58.0706 68.7672 58.0706C67.2043 58.0706 65.4243 58.2121 63.4273 58.495V75.3689Z" fill="#333333"/>
<path d="M91.8979 76.8031V76.2616H93.2264C94.7198 76.2616 95.7791 75.9933 96.4043 75.4567C96.7863 75.1347 96.9773 74.4128 96.9773 73.2908V60.4707C96.9773 59.2316 96.7342 58.456 96.248 58.1438C95.5707 57.7145 94.5635 57.4999 93.2264 57.4999H91.8979V56.9584H106.277C111.556 56.9584 115.567 57.295 118.311 57.9682C121.072 58.6414 123.286 59.7634 124.953 61.3342C126.638 62.905 127.48 64.7197 127.48 66.7783C127.48 69.5394 125.986 71.8468 122.999 73.7005C119.648 75.7689 114.542 76.8031 107.683 76.8031H91.8979ZM101.979 75.3689C104.184 75.6421 106.033 75.7787 107.527 75.7787C111.556 75.7787 114.898 74.9835 117.555 73.3932C120.212 71.8029 121.541 69.6467 121.541 66.9246C121.541 64.1831 120.212 62.022 117.555 60.4414C114.898 58.8609 111.486 58.0706 107.318 58.0706C105.756 58.0706 103.976 58.2121 101.979 58.495V75.3689Z" fill="#333333"/>
<path d="M146 76.2616V76.8031H130.866V76.2616H132.116C133.575 76.2616 134.634 76.0226 135.294 75.5445C135.711 75.2323 135.919 74.481 135.919 73.2908V60.4707C135.919 59.4658 135.806 58.8024 135.581 58.4804C135.407 58.2365 135.051 58.0267 134.513 57.8511C133.749 57.6169 132.95 57.4999 132.116 57.4999H130.866V56.9584H146V57.4999H144.724C143.282 57.4999 142.232 57.7389 141.572 58.217C141.138 58.5292 140.921 59.2804 140.921 60.4707V73.2908C140.921 74.2957 141.033 74.9591 141.259 75.2811C141.433 75.525 141.798 75.7348 142.353 75.9104C143.1 76.1445 143.89 76.2616 144.724 76.2616H146Z" fill="#333333"/>
<path d="M48.1034 90.7474L47.1502 91.1546C46.3259 90.4031 45.201 90.0274 43.7756 90.0274C42.6364 90.0274 41.6889 90.2792 40.9333 90.7828C40.1834 91.2864 39.8084 91.8982 39.8084 92.6183C39.8084 93.0865 39.9802 93.5271 40.3236 93.9403C40.6728 94.3534 41.148 94.6741 41.7491 94.9023C42.3559 95.1305 43.0342 95.2446 43.7842 95.2446C45.1581 95.2446 46.2801 94.8688 47.1502 94.1173L48.1034 94.5482C47.6569 95.0085 47.0558 95.3666 46.3001 95.6223C45.5502 95.8741 44.6944 96 43.7326 96C42.2557 96 41.0306 95.6774 40.0574 95.0321C39.0842 94.3869 38.5977 93.6019 38.5977 92.6773C38.5977 92.0556 38.8238 91.4792 39.276 90.948C39.734 90.4129 40.3608 89.9959 41.1566 89.6968C41.9523 89.3978 42.8425 89.2483 43.8271 89.2483C44.4454 89.2483 45.0407 89.3132 45.6132 89.4431C46.1914 89.5729 46.6808 89.7421 47.0815 89.9506C47.4823 90.1592 47.8229 90.4247 48.1034 90.7474Z" fill="#333333"/>
<path d="M59.7301 89.4136V95.8348H58.5451V94.7311C58.0413 95.1521 57.4746 95.4689 56.8449 95.6813C56.2209 95.8938 55.5368 96 54.7926 96C53.4702 96 52.3396 95.6715 51.4008 95.0144C50.4676 94.3534 50.0011 93.5508 50.0011 92.6065C50.0011 91.6818 50.4734 90.891 51.4179 90.2339C52.3625 89.5768 53.4988 89.2483 54.8269 89.2483C55.594 89.2483 56.2867 89.3604 56.905 89.5847C57.529 89.809 58.0757 90.1454 58.5451 90.5939V89.4136H59.7301ZM54.9214 90.0451C54.2516 90.0451 53.6334 90.1592 53.0666 90.3874C52.4999 90.6116 52.0476 90.9284 51.7099 91.3376C51.3779 91.7468 51.2119 92.1796 51.2119 92.636C51.2119 93.0884 51.3807 93.5212 51.7185 93.9344C52.0562 94.3475 52.5085 94.6701 53.0752 94.9023C53.6477 95.1305 54.2602 95.2446 54.9128 95.2446C55.5711 95.2446 56.1951 95.1305 56.7848 94.9023C57.3744 94.6741 57.8266 94.3652 58.1415 93.9757C58.4621 93.5862 58.6224 93.1475 58.6224 92.6596C58.6224 91.9159 58.2646 91.2943 57.549 90.7946C56.8391 90.2949 55.9633 90.0451 54.9214 90.0451Z" fill="#333333"/>
<path d="M62.435 89.4136H63.6285V90.5231C64.0464 90.1139 64.4758 89.8149 64.9166 89.626C65.5234 89.3742 66.1617 89.2483 66.8315 89.2483C67.2837 89.2483 67.7131 89.3093 68.1195 89.4313C68.526 89.5532 68.858 89.7165 69.1156 89.9211C69.3732 90.1218 69.5965 90.411 69.7854 90.7887C70.1861 90.2851 70.687 89.9034 71.2881 89.6437C71.8892 89.3801 72.536 89.2483 73.2287 89.2483C73.8756 89.2483 74.4452 89.3604 74.9375 89.5847C75.4356 89.809 75.8048 90.1218 76.0452 90.5231C76.2857 90.9244 76.4059 91.5264 76.4059 92.3291V95.8348H75.178V92.3291C75.178 91.6405 75.1064 91.1684 74.9633 90.9126C74.8202 90.6529 74.574 90.4444 74.2248 90.287C73.8813 90.1297 73.4692 90.051 72.9883 90.051C72.4044 90.051 71.8691 90.169 71.3825 90.4051C70.9017 90.6411 70.5496 90.9559 70.3263 91.3494C70.1031 91.7428 69.9915 92.3999 69.9915 93.3206V95.8348H68.7979V92.5474C68.7979 91.7723 68.7263 91.2471 68.5832 90.9716C68.4458 90.6923 68.2025 90.47 67.8533 90.3047C67.5041 90.1356 67.0891 90.051 66.6082 90.051C66.0529 90.051 65.532 90.167 65.0454 90.3992C64.5645 90.6274 64.2067 90.9362 63.972 91.3258C63.743 91.7153 63.6285 92.3114 63.6285 93.114V95.8348H62.435V89.4136Z" fill="#333333"/>
<path d="M79.3684 86.7695C79.6432 86.7695 79.8779 86.8364 80.0725 86.9702C80.2671 87.104 80.3645 87.2653 80.3645 87.4541C80.3645 87.6391 80.2671 87.7984 80.0725 87.9322C79.8779 88.066 79.6432 88.1329 79.3684 88.1329C79.0993 88.1329 78.8675 88.066 78.6728 87.9322C78.4782 87.7984 78.3809 87.6391 78.3809 87.4541C78.3809 87.2653 78.4782 87.104 78.6728 86.9702C78.8675 86.8364 79.0993 86.7695 79.3684 86.7695ZM78.7673 89.4136H79.9781V95.8348H78.7673V89.4136Z" fill="#333333"/>
<path d="M91.5361 90.7474L90.5829 91.1546C89.7586 90.4031 88.6337 90.0274 87.2082 90.0274C86.069 90.0274 85.1216 90.2792 84.366 90.7828C83.616 91.2864 83.2411 91.8982 83.2411 92.6183C83.2411 93.0865 83.4128 93.5271 83.7563 93.9403C84.1055 94.3534 84.5806 94.6741 85.1817 94.9023C85.7885 95.1305 86.4669 95.2446 87.2168 95.2446C88.5907 95.2446 89.7128 94.8688 90.5829 94.1173L91.5361 94.5482C91.0895 95.0085 90.4884 95.3666 89.7328 95.6223C88.9829 95.8741 88.127 96 87.1653 96C85.6884 96 84.4633 95.6774 83.4901 95.0321C82.5169 94.3869 82.0303 93.6019 82.0303 92.6773C82.0303 92.0556 82.2564 91.4792 82.7087 90.948C83.1667 90.4129 83.7935 89.9959 84.5892 89.6968C85.385 89.3978 86.2751 89.2483 87.2598 89.2483C87.878 89.2483 88.4734 89.3132 89.0458 89.4431C89.624 89.5729 90.1135 89.7421 90.5142 89.9506C90.9149 90.1592 91.2555 90.4247 91.5361 90.7474Z" fill="#333333"/>
<path d="M94.2753 86.7695C94.5501 86.7695 94.7848 86.8364 94.9794 86.9702C95.174 87.104 95.2714 87.2653 95.2714 87.4541C95.2714 87.6391 95.174 87.7984 94.9794 87.9322C94.7848 88.066 94.5501 88.1329 94.2753 88.1329C94.0062 88.1329 93.7744 88.066 93.5797 87.9322C93.3851 87.7984 93.2878 87.6391 93.2878 87.4541C93.2878 87.2653 93.3851 87.104 93.5797 86.9702C93.7744 86.8364 94.0062 86.7695 94.2753 86.7695ZM93.6742 89.4136H94.885V95.8348H93.6742V89.4136Z" fill="#333333"/>
<path d="M105.241 93.7042L106.254 94.0701C105.922 94.5187 105.538 94.8806 105.103 95.1561C104.668 95.4315 104.179 95.642 103.635 95.7876C103.091 95.9292 102.476 96 101.789 96C100.266 96 99.0754 95.6577 98.2167 94.9731C97.358 94.2846 96.9286 93.5075 96.9286 92.6419C96.9286 91.8274 97.2922 91.1015 98.0192 90.4641C98.9408 89.6536 100.174 89.2483 101.72 89.2483C103.312 89.2483 104.582 89.6634 105.533 90.4936C106.208 91.0798 106.552 91.8117 106.563 92.6891H98.1652C98.1881 93.4367 98.5344 94.0504 99.2042 94.5305C99.874 95.0065 100.701 95.2446 101.686 95.2446C102.161 95.2446 102.622 95.1875 103.068 95.0734C103.521 94.9593 103.904 94.8078 104.219 94.619C104.534 94.4301 104.874 94.1252 105.241 93.7042ZM105.241 91.975C105.08 91.5343 104.846 91.1821 104.537 90.9185C104.233 90.6549 103.83 90.4424 103.326 90.2811C102.822 90.1198 102.293 90.0392 101.737 90.0392C100.821 90.0392 100.034 90.2418 99.3759 90.647C98.895 90.9421 98.5315 91.3848 98.2854 91.975H105.241Z" fill="#333333"/>
</svg>
