<svg width="15" height="15" viewBox="0 0 15 15" fill="none" xmlns="http://www.w3.org/2000/svg">
<path d="M15 12.0707C15 11.755 14.8737 11.4394 14.6465 11.2121L10.9343 7.5L14.6465 3.78788C14.8737 3.56061 15 3.24495 15 2.92929C15 2.61364 14.8737 2.29798 14.6465 2.07071L12.9293 0.353535C12.702 0.126263 12.3864 0 12.0707 0C11.7551 0 11.4394 0.126263 11.2121 0.353535L7.5 4.06566L3.78788 0.353535C3.56061 0.126263 3.24495 0 2.92929 0C2.61364 0 2.29798 0.126263 2.07071 0.353535L0.353535 2.07071C0.126263 2.29798 0 2.61364 0 2.92929C0 3.24495 0.126263 3.56061 0.353535 3.78788L4.06566 7.5L0.353535 11.2121C0.126263 11.4394 0 11.755 0 12.0707C0 12.3864 0.126263 12.702 0.353535 12.9293L2.07071 14.6465C2.29798 14.8737 2.61364 15 2.92929 15C3.24495 15 3.56061 14.8737 3.78788 14.6465L7.5 10.9343L11.2121 14.6465C11.4394 14.8737 11.7551 15 12.0707 15C12.3864 15 12.702 14.8737 12.9293 14.6465L14.6465 12.9293C14.8737 12.702 15 12.3864 15 12.0707Z" fill="#555555"/>
</svg>
