<svg width="100" height="100" viewBox="0 0 100 100" fill="none" xmlns="http://www.w3.org/2000/svg">
<g filter="url(#filter0_i)">
<path d="M54.1641 73.1787C54.1641 73.1787 68.6028 90.5512 99.9991 94.815V0H62.8403C60.0066 32.3488 55.0891 68.245 54.1641 73.1787Z" fill="#E1E1E1"/>
</g>
<g filter="url(#filter1_i)">
<path d="M34.2688 75.73C34.8863 74.9587 36.8976 62.4737 36.1813 60.6587C39.0376 52.79 49.3263 24.1937 56.7926 0H24.0088C20.1851 24.1575 15.0938 51.4487 13.9738 57.4C13.2113 60.2837 10.6126 70.2275 10.7138 71.3937C10.8313 72.7612 33.6438 76.5112 34.2688 75.73Z" fill="#E1E1E1"/>
</g>
<path d="M36.2375 63.6863L35.7562 68.3888C35.7775 68.445 35.7875 68.4888 35.785 68.51C35.7275 68.8863 33.7487 70.285 28.45 70.285C26.8312 70.285 25.13 70.1513 23.3937 69.8875C19.9812 69.3663 16.7437 68.3638 14.5112 67.1363C12.3162 65.9275 11.955 65.0113 11.975 64.8788C11.98 64.845 12.0012 64.8013 12.04 64.7513L13.2787 60.0613C10.3587 60.8688 8.56874 62.335 8.26749 64.3125C8.03249 65.855 8.60999 68.1688 12.7025 70.42C15.345 71.8738 18.9412 73 22.8287 73.5925C24.7512 73.8863 26.6425 74.035 28.45 74.035C34.8912 74.035 39.02 72.1813 39.4925 69.075C39.7012 67.695 39.2537 65.7025 36.2375 63.6863Z" fill="black"/>
<path d="M19.3128 63.1026C20.9316 63.1026 22.6316 63.2363 24.3666 63.5001C27.7791 64.0213 31.0166 65.0251 33.2491 66.2526C35.1053 67.2738 35.6441 68.0813 35.7553 68.3876L36.2366 63.6851C35.8778 63.4463 35.4903 63.2051 35.0553 62.9663C32.4141 61.5138 28.8178 60.3876 24.9291 59.7926C23.0078 59.5013 21.1178 59.3513 19.3103 59.3513C16.9703 59.3513 14.9403 59.5988 13.2753 60.0588L12.0391 64.7513C12.4228 64.2563 14.4978 63.1026 19.3128 63.1026Z" fill="#B3B3B3"/>
<defs>
<filter id="filter0_i" x="54.1641" y="0" width="45.835" height="97.815" filterUnits="userSpaceOnUse" color-interpolation-filters="sRGB">
<feFlood flood-opacity="0" result="BackgroundImageFix"/>
<feBlend mode="normal" in="SourceGraphic" in2="BackgroundImageFix" result="shape"/>
<feColorMatrix in="SourceAlpha" type="matrix" values="0 0 0 0 0 0 0 0 0 0 0 0 0 0 0 0 0 0 127 0" result="hardAlpha"/>
<feOffset dy="3"/>
<feGaussianBlur stdDeviation="5"/>
<feComposite in2="hardAlpha" operator="arithmetic" k2="-1" k3="1"/>
<feColorMatrix type="matrix" values="0 0 0 0 0 0 0 0 0 0 0 0 0 0 0 0 0 0 0.25 0"/>
<feBlend mode="normal" in2="shape" result="effect1_innerShadow"/>
</filter>
<filter id="filter1_i" x="10.7109" y="0" width="46.0816" height="78.836" filterUnits="userSpaceOnUse" color-interpolation-filters="sRGB">
<feFlood flood-opacity="0" result="BackgroundImageFix"/>
<feBlend mode="normal" in="SourceGraphic" in2="BackgroundImageFix" result="shape"/>
<feColorMatrix in="SourceAlpha" type="matrix" values="0 0 0 0 0 0 0 0 0 0 0 0 0 0 0 0 0 0 127 0" result="hardAlpha"/>
<feOffset dy="3"/>
<feGaussianBlur stdDeviation="5"/>
<feComposite in2="hardAlpha" operator="arithmetic" k2="-1" k3="1"/>
<feColorMatrix type="matrix" values="0 0 0 0 0 0 0 0 0 0 0 0 0 0 0 0 0 0 0.25 0"/>
<feBlend mode="normal" in2="shape" result="effect1_innerShadow"/>
</filter>
</defs>
</svg>
