<svg width="200" height="200" viewBox="0 0 200 200" fill="none" xmlns="http://www.w3.org/2000/svg">
<path d="M100 200C155.242 200 200 155.242 200 100C200 44.7581 155.242 0 100 0C44.7581 0 0 44.7581 0 100C0 155.242 44.7581 200 100 200ZM12.9032 100C12.9032 52.1371 51.6532 12.9032 100 12.9032C147.863 12.9032 187.097 51.6532 187.097 100C187.097 147.863 148.347 187.097 100 187.097C52.1371 187.097 12.9032 148.347 12.9032 100ZM146.653 92.7419L75.6855 49.5968C69.3145 46.0484 61.2903 50.6048 61.2903 58.0645V141.935C61.2903 149.355 69.2742 153.952 75.6855 150.403L146.653 109.677C153.266 106.008 153.266 96.4516 146.653 92.7419ZM74.1936 132.177V68.1048C74.1936 66.2097 76.25 65.0403 77.8629 66.0484L132.097 98.9919C133.669 99.9597 133.629 102.258 132.056 103.145L77.8226 134.274C76.2097 135.202 74.1936 134.032 74.1936 132.177Z" fill="#EEEEEE"/>
</svg>
