<svg width="30" height="30" viewBox="0 0 30 30" fill="none" xmlns="http://www.w3.org/2000/svg">
<path d="M21.6011 0H8.23306C3.69335 0 0 3.69353 0 8.23324V21.6012C0 26.1411 3.69335 29.8345 8.23306 29.8345H21.6011C26.1411 29.8345 29.8345 26.1409 29.8345 21.6012V8.23324C29.8346 3.69353 26.1411 0 21.6011 0ZM27.1876 21.6012C27.1876 24.6815 24.6815 27.1874 21.6012 27.1874H8.23306C5.15294 27.1876 2.64706 24.6815 2.64706 21.6012V8.23324C2.64706 5.15312 5.15294 2.64706 8.23306 2.64706H21.6011C24.6814 2.64706 27.1874 5.15312 27.1874 8.23324V21.6012H27.1876Z" fill="#555555"/>
<path d="M14.9171 7.22998C10.6781 7.22998 7.22949 10.6786 7.22949 14.9176C7.22949 19.1564 10.6781 22.6048 14.9171 22.6048C19.1561 22.6048 22.6047 19.1564 22.6047 14.9176C22.6047 10.6786 19.1561 7.22998 14.9171 7.22998ZM14.9171 19.9576C12.1378 19.9576 9.87655 17.6966 9.87655 14.9174C9.87655 12.138 12.1377 9.87686 14.9171 9.87686C17.6965 9.87686 19.9576 12.138 19.9576 14.9174C19.9576 17.6966 17.6963 19.9576 14.9171 19.9576Z" fill="#555555"/>
<path d="M22.9275 4.98535C22.4175 4.98535 21.9165 5.19182 21.5563 5.55359C21.1944 5.91359 20.9863 6.41476 20.9863 6.92653C20.9863 7.4367 21.1946 7.9377 21.5563 8.29947C21.9163 8.65947 22.4175 8.8677 22.9275 8.8677C23.4393 8.8677 23.9387 8.65947 24.3004 8.29947C24.6622 7.9377 24.8687 7.43653 24.8687 6.92653C24.8687 6.41476 24.6622 5.91359 24.3004 5.55359C23.9404 5.19182 23.4393 4.98535 22.9275 4.98535Z" fill="#555555"/>
</svg>
