<svg width="100" height="100" viewBox="0 0 100 100" fill="none" xmlns="http://www.w3.org/2000/svg">
<g filter="url(#filter0_i)">
<path d="M85.2666 25.0537C76.2841 9.61373 69.0378 8.98373 69.0378 8.98373L60.4941 7.47498C59.8553 5.99373 59.1403 4.33498 58.9553 3.92123C58.6003 3.13373 57.3291 1.82373 51.0666 1.82373C44.8041 1.82373 43.3653 3.03498 42.8041 3.83248C42.4666 4.31123 41.6466 6.44373 41.0453 8.06998C33.6953 10.1737 24.4641 13.34 23.3453 16.23C21.4541 21.115 18.7366 40.2725 17.4766 50.8287C16.3266 60.465 12.9766 78.4237 12.4016 81.4812C12.1141 82.5712 11.1303 86.3312 11.1691 86.7712C11.2141 87.2887 19.8403 88.7062 20.0766 88.4112C20.3103 88.12 21.0703 83.3987 20.8003 82.7112C22.4616 78.135 30.7691 55.0225 31.6191 47.935C31.3041 61.0112 28.0728 84.9237 27.5991 87.445C27.5991 87.445 34.6891 95.9825 50.2891 95.9825C65.8866 95.9825 73.2928 87.445 73.2928 87.445C73.2928 87.445 71.8091 78.3825 70.5741 68.6862C78.6041 62.605 93.1091 49.6825 93.1091 45.2187C93.1078 43.6462 94.2466 40.495 85.2666 25.0537ZM80.0578 43.6462C79.8453 45.3825 73.5541 51.2262 69.1541 55.12C68.9403 52.0575 68.8716 49.4575 69.0366 47.7425C69.8703 39.0962 71.8728 31.6712 71.8728 31.6712C71.8728 31.6712 80.3816 40.9675 80.0578 43.6462Z" fill="#E1E1E1"/>
</g>
<path d="M38.3594 94.6089V9.45386C38.3594 8.41761 39.1994 7.57886 40.2344 7.57886C41.2694 7.57886 42.1094 8.41761 42.1094 9.45386V94.6076C42.1094 95.6426 41.2694 96.4826 40.2344 96.4826C39.1994 96.4826 38.3594 95.6439 38.3594 94.6089Z" fill="#D21919"/>
<defs>
<filter id="filter0_i" x="11.168" y="1.82373" width="81.9871" height="97.1588" filterUnits="userSpaceOnUse" color-interpolation-filters="sRGB">
<feFlood flood-opacity="0" result="BackgroundImageFix"/>
<feBlend mode="normal" in="SourceGraphic" in2="BackgroundImageFix" result="shape"/>
<feColorMatrix in="SourceAlpha" type="matrix" values="0 0 0 0 0 0 0 0 0 0 0 0 0 0 0 0 0 0 127 0" result="hardAlpha"/>
<feOffset dy="3"/>
<feGaussianBlur stdDeviation="5"/>
<feComposite in2="hardAlpha" operator="arithmetic" k2="-1" k3="1"/>
<feColorMatrix type="matrix" values="0 0 0 0 0 0 0 0 0 0 0 0 0 0 0 0 0 0 0.25 0"/>
<feBlend mode="normal" in2="shape" result="effect1_innerShadow"/>
</filter>
</defs>
</svg>
