<svg width="100" height="100" viewBox="0 0 100 100" fill="none" xmlns="http://www.w3.org/2000/svg">
<g clip-path="url(#clip0)">
<g filter="url(#filter0_i)">
<path d="M33.0695 100C37.7658 91.0775 43.8058 78.0425 45.5695 74.5238C48.007 69.6663 49.5133 66.61 50.6708 64.105C51.8245 61.595 56.4195 59.7563 63.5795 53.225C66.5033 50.6188 69.2595 46.825 70.832 44.5075C72.337 42.2888 77.6708 38.2325 82.5845 34.8188C84.4145 34.145 88.2083 31.63 86.7895 29.8625C85.3745 28.0975 82.1608 30.6738 81.5495 30.9013C80.9408 31.1263 76.9895 33.7663 72.6845 36.9538C70.4095 39.0475 70.402 36.41 70.017 35.93C69.6295 35.4488 77.3083 29.5563 77.3083 29.5563C77.3083 29.5563 85.9145 23.1825 87.0358 22.2825C88.1633 21.38 90.7633 20.3513 89.0895 18.2625C87.4158 16.175 84.3683 18.62 83.8833 19.0088C83.4033 19.3925 73.9608 26.6988 71.5533 28.6313C69.1458 30.5613 68.2433 30.7563 67.1508 30.05C66.0595 29.3438 70.4245 25.5763 70.4245 25.5763C70.4245 25.5763 82.2733 16.34 83.557 15.3113C84.842 14.2813 87.2208 12.64 85.417 10.3888C83.6158 8.14376 79.2158 12.195 79.2158 12.195C79.2158 12.195 65.827 23.4625 63.8995 25.0075C61.9733 26.5513 60.557 24.785 61.7745 23.0163C62.9945 21.2463 69.6158 14.87 71.502 13.2538C73.9333 11.17 77.7008 8.66252 75.7695 6.25502C73.8395 3.84501 68.5108 10.16 65.1383 12.865C61.7683 15.5688 52.6195 25.0813 50.4683 27.3363C48.317 29.5888 48.3445 26.6625 48.3445 26.6625C48.3445 26.6625 48.597 20.3925 48.527 18.3375C48.4633 16.2838 47.1083 12.6188 44.9533 12.2363C42.7995 11.8513 43.8633 15.485 43.997 16.9613C44.1258 18.4375 40.6033 29.1775 40.2533 32.3588C39.8995 35.54 39.1445 46.4388 39.1445 46.4388C38.9533 49.49 37.8308 51.71 35.3908 55.25C34.107 57.11 28.1883 67.7438 21.1158 77.2463C17.142 82.5875 8.02953 92.7825 1.36328 100H33.0695Z" fill="#E1E1E1"/>
</g>
<path d="M51.7872 62.6425C51.7722 62.6837 51.776 62.7387 51.7585 62.7775C51.3597 63.5987 50.0547 64.0887 48.2697 64.0887C46.3172 64.0887 44.0435 63.505 41.866 62.4462C39.5535 61.3225 37.556 59.7412 36.3847 58.1087C35.466 56.8275 35.1347 55.6162 35.4972 54.8687C35.6122 54.6337 35.8085 54.4287 36.0622 54.2525C36.6297 53.3825 37.8335 51.45 38.4597 49.835C35.4235 49.9637 33.1247 51.175 32.1247 53.2287C31.1197 55.295 31.551 57.805 33.3372 60.295C34.8822 62.4487 37.3285 64.41 40.2247 65.8175C42.9035 67.1212 45.7597 67.8387 48.2697 67.8387C51.5735 67.8387 54.0735 66.5925 55.1297 64.4187C55.801 63.0387 55.8097 61.4875 55.2797 59.9175C53.9772 60.9062 52.3947 62.1212 51.7872 62.6425Z" fill="black"/>
<path d="M38.9863 53.56C40.9388 53.56 43.2125 54.1437 45.39 55.2012C50.2975 57.5887 52.3638 61.0662 51.7875 62.6425C52.395 62.1212 53.9775 60.905 55.28 59.9175C54.2775 56.95 51.3188 53.9137 47.03 51.8287C44.3513 50.5262 41.495 49.8087 38.9863 49.8087C38.805 49.8087 38.6362 49.8262 38.46 49.835C37.8337 51.45 36.6288 53.3825 36.0625 54.2525C36.6913 53.8125 37.7125 53.56 38.9863 53.56Z" fill="#999999"/>
</g>
<defs>
<filter id="filter0_i" x="1.36328" y="5.71729" width="88.2728" height="97.2827" filterUnits="userSpaceOnUse" color-interpolation-filters="sRGB">
<feFlood flood-opacity="0" result="BackgroundImageFix"/>
<feBlend mode="normal" in="SourceGraphic" in2="BackgroundImageFix" result="shape"/>
<feColorMatrix in="SourceAlpha" type="matrix" values="0 0 0 0 0 0 0 0 0 0 0 0 0 0 0 0 0 0 127 0" result="hardAlpha"/>
<feOffset dy="3"/>
<feGaussianBlur stdDeviation="5"/>
<feComposite in2="hardAlpha" operator="arithmetic" k2="-1" k3="1"/>
<feColorMatrix type="matrix" values="0 0 0 0 0 0 0 0 0 0 0 0 0 0 0 0 0 0 0.25 0"/>
<feBlend mode="normal" in2="shape" result="effect1_innerShadow"/>
</filter>
<clipPath id="clip0">
<rect width="100" height="100" fill="white"/>
</clipPath>
</defs>
</svg>
