<svg width="100" height="100" viewBox="0 0 100 100" fill="none" xmlns="http://www.w3.org/2000/svg">
<g filter="url(#filter0_i)">
<path d="M95.6575 90.0938C92.6188 83.7737 92.7163 81.9987 92.6188 79.5287C92.5213 77.0612 90.4613 63.5387 90.56 55.74C90.6588 47.94 90.755 39.3513 86.7388 35.6013C82.7188 31.85 78.5025 30.565 74.9737 29.1838C71.445 27.8 62.0363 24.25 60.6637 20.6925C59.2912 17.14 60.075 12.5 60.075 12.5L39.88 12.7963C39.88 12.7963 40.4688 18.72 38.7038 21.5337C36.94 24.3475 25.03 28.345 18.8525 31.305C12.6775 34.2675 9.14875 38.1175 9.14875 50.4075C9.14875 62.6975 7.3825 80.7613 7.235 82.0963C7.08875 83.4275 6.205 86.6875 4.14875 90.3887C2.69 93.01 2.045 96.965 1.6875 100H17.695C18.6825 97.1712 19.3937 94.7025 19.3937 93.35C19.3937 89.105 20.0788 85.9475 20.4713 83.8737C20.8638 81.7988 22.3338 75.78 22.6275 73.9038C22.9225 73.1138 23.8038 75.4837 24.1 77.0612C24.3913 78.6387 26.4513 82.985 24.3913 97.1012C24.215 98.105 24.075 99.0638 23.95 99.9987H75.5375C75.4212 99.1338 75.3 98.3387 75.1712 97.6937C74.3875 93.7438 74.29 86.735 74.4837 84.1687C74.68 81.6012 76.0537 76.8625 76.6425 75.385C77.2312 73.9025 77.1325 76.7663 77.3287 77.6525C77.5237 78.5425 78.8962 84.1688 79.4863 86.1425C80.0725 88.1175 80.2938 92.575 80.5638 94.73C80.885 97.2925 81.4062 98.7513 81.9688 99.9987H98.3113C97.8488 96.4075 97.2538 93.4112 95.6575 90.0938Z" fill="#E1E1E1"/>
</g>
<path d="M17.4363 32.8187C16.7625 32.8187 16.1113 32.4537 15.775 31.8175C15.2925 30.9012 15.6438 29.7675 16.56 29.285C17.0075 29.05 27.7663 23.5162 50.0463 23.5162C72.37 23.5162 82.1425 29.0887 82.5475 29.325C83.4413 29.8475 83.7413 30.9962 83.2175 31.89C82.695 32.785 81.5463 33.0837 80.6525 32.5612C80.5663 32.5112 71.2088 27.2662 50.045 27.2662C28.6838 27.2662 18.4088 32.5487 18.3075 32.6025C18.0288 32.7487 17.73 32.8187 17.4363 32.8187Z" fill="black"/>
<defs>
<filter id="filter0_i" x="1.6875" y="12.5" width="96.6238" height="90.5" filterUnits="userSpaceOnUse" color-interpolation-filters="sRGB">
<feFlood flood-opacity="0" result="BackgroundImageFix"/>
<feBlend mode="normal" in="SourceGraphic" in2="BackgroundImageFix" result="shape"/>
<feColorMatrix in="SourceAlpha" type="matrix" values="0 0 0 0 0 0 0 0 0 0 0 0 0 0 0 0 0 0 127 0" result="hardAlpha"/>
<feOffset dy="3"/>
<feGaussianBlur stdDeviation="5"/>
<feComposite in2="hardAlpha" operator="arithmetic" k2="-1" k3="1"/>
<feColorMatrix type="matrix" values="0 0 0 0 0 0 0 0 0 0 0 0 0 0 0 0 0 0 0.25 0"/>
<feBlend mode="normal" in2="shape" result="effect1_innerShadow"/>
</filter>
</defs>
</svg>
