<svg width="104" height="30" viewBox="0 0 104 30" fill="none" xmlns="http://www.w3.org/2000/svg">
<g clip-path="url(#clip0)">
<path d="M17.4636 2.96242C17.104 2.37754 16.6351 1.86817 16.0828 1.46242C15.525 1.07917 14.9138 0.780938 14.2691 0.577424C13.5686 0.347144 12.8454 0.19375 12.1121 0.119924C11.2538 0.0358608 10.3919 -0.00419111 9.52961 -7.62511e-05H2.06584C1.89283 -0.0164978 1.7183 0.00213961 1.55259 0.0547319C1.38687 0.107324 1.23335 0.192802 1.10111 0.306101C0.968869 0.4194 0.860604 0.558215 0.782726 0.714325C0.704848 0.870434 0.658942 1.04066 0.647727 1.21492C0.647727 1.21492 0.647727 1.25992 0.647727 1.28242V13.4624C1.68252 15.6937 3.40094 17.5334 5.55142 18.7124V16.2674C5.53504 16.0788 5.55585 15.8887 5.61266 15.7082C5.66946 15.5276 5.76115 15.3601 5.88248 15.2152C6.00381 15.0703 6.15238 14.9508 6.3197 14.8637C6.48703 14.7766 6.66981 14.7235 6.85758 14.7074H9.09671C12.1519 14.7074 14.4831 14.0649 16.0903 12.7799C17.6975 11.4949 18.5135 9.58992 18.5384 7.06492C18.541 6.33726 18.4558 5.61197 18.2846 4.90492C18.114 4.21817 17.8369 3.56266 17.4636 2.96242ZM13.0898 9.22492C12.8295 9.675 12.4426 10.0377 11.9777 10.2674C11.474 10.5092 10.9298 10.6542 10.373 10.6949C9.76148 10.7714 9.14573 10.809 8.52947 10.8074H6.3799C5.8649 10.8074 5.54396 10.3874 5.54396 9.77242V4.74742C5.53654 4.63717 5.55345 4.52663 5.59349 4.42371C5.63353 4.32079 5.69571 4.22803 5.77559 4.15207C5.85546 4.07612 5.95105 4.01883 6.05552 3.98431C6.15999 3.9498 6.27075 3.93891 6.3799 3.95242H8.52947C9.22609 3.95242 9.8829 3.97242 10.4999 4.01242C11.0498 4.03894 11.5895 4.17134 12.0897 4.40242C12.5499 4.60831 12.9338 4.95472 13.1869 5.39242C13.4726 5.97931 13.6037 6.63007 13.5675 7.28242C13.582 7.95859 13.4171 8.62646 13.0898 9.21742V9.22492ZM5.55889 19.4474C3.71829 18.7801 2.04298 17.721 0.647727 16.3424V22.2299C0.632097 22.3421 0.639196 22.4562 0.668597 22.5656C0.697997 22.6749 0.749093 22.7771 0.818813 22.8661C0.888532 22.9551 0.975435 23.0289 1.0743 23.0833C1.17316 23.1377 1.28194 23.1714 1.3941 23.1824H4.76773C5.66338 23.1824 5.55889 22.2224 5.55889 22.2224V19.4474ZM51.9238 6.41242H49.0129C48.7351 6.39416 48.4599 6.47525 48.2358 6.64134C48.0118 6.80743 47.8535 7.04781 47.7889 7.31992L44.4078 16.6799C44.4078 16.6799 41.4223 8.15242 41.1984 7.49242C41.1355 7.18789 40.971 6.91408 40.7321 6.71631C40.4932 6.51854 40.1943 6.40869 39.8848 6.40492H37.2053C36.2499 6.40492 36.2499 7.15492 36.3768 7.44742C36.5037 7.73992 40.1684 17.8349 41.6014 21.6974C41.8271 22.1729 41.9854 22.6778 42.0716 23.1974C41.9787 23.7103 41.7859 24.1996 41.5044 24.6374C41.3955 24.823 41.2706 24.9987 41.1312 25.1624C43.8928 24.3374 47.1022 21.3299 48.7144 18.0824C50.3415 13.5824 52.4836 7.58242 52.5806 7.27492C52.6851 6.80242 52.6851 6.41242 51.9238 6.41242ZM38.9518 26.0774C38.7021 26.0707 38.453 26.0507 38.2054 26.0174C37.8994 25.9724 37.3172 26.0174 37.3172 26.5424V28.7924C37.3172 29.6549 37.7352 29.7149 37.9516 29.7749C38.6429 29.9273 39.3487 30.0028 40.0564 29.9999C40.8927 30.022 41.7228 29.8501 42.4821 29.4974C43.1769 29.1448 43.7937 28.655 44.2958 28.0574C44.8652 27.4033 45.347 26.6771 45.7289 25.8974C46.1419 25.0674 46.535 24.1499 46.9082 23.1449L47.3411 21.9524C46.4753 22.8149 42.6538 26.4374 38.9518 26.0774ZM34.5482 9.10492C34.3896 8.72594 34.173 8.37419 33.9063 8.06242C33.6366 7.77362 33.3304 7.52149 32.9957 7.31242C32.6341 7.06498 32.2491 6.85396 31.8463 6.68242C31.4362 6.52272 31.0145 6.39484 30.5849 6.29992C30.0933 6.19065 29.5944 6.11795 29.0921 6.08242C28.5548 6.02742 27.9527 5.99992 27.2859 5.99992C22.8375 5.99992 20.3048 7.40992 19.6878 10.2299C19.6615 10.335 19.6581 10.4446 19.678 10.5512C19.6979 10.6577 19.7405 10.7586 19.8029 10.847C19.8654 10.9354 19.9461 11.0091 20.0396 11.0632C20.1331 11.1172 20.2372 11.1502 20.3446 11.1599H23.0838C23.8302 11.1599 23.8302 10.9274 24.1138 10.2824C24.2381 9.93127 24.4611 9.62386 24.7557 9.39742C25.4556 8.94346 26.2833 8.73026 27.1143 8.78992C27.8892 8.71034 28.6675 8.90388 29.3161 9.33742C29.8107 9.80144 30.1031 10.4429 30.1296 11.1224C30.1296 12.0524 29.846 12.6674 28.6966 12.6674C25.9723 12.5699 23.0465 12.8774 21.397 13.8299C20.585 14.328 19.9185 15.0329 19.465 15.8732C19.0114 16.7135 18.7871 17.6594 18.8145 18.6149C18.7958 19.3592 18.9464 20.098 19.2549 20.7749C19.5455 21.3632 19.9669 21.8764 20.4864 22.2749C21.0318 22.7219 21.6614 23.0535 22.3374 23.2499C23.1012 23.4577 23.8898 23.5587 24.6811 23.5499C25.7455 23.5665 26.8059 23.4147 27.8233 23.0999C28.7226 22.7297 29.5725 22.2485 30.3535 21.6674V22.1924C30.3535 22.7099 30.5103 23.1749 31.0999 23.1749H34.272C34.9139 23.1749 35.0632 22.7174 35.0632 22.1474V12.3299C35.067 11.7176 35.0246 11.1058 34.9363 10.4999C34.8658 10.0204 34.7354 9.55166 34.5482 9.10492ZM30.2117 18.7499C30.2117 18.7499 29.3907 20.4749 26.4798 20.4749C25.7818 20.5072 25.0917 20.3155 24.5094 19.9274C24.2531 19.7274 24.0506 19.4662 23.9202 19.1676C23.7899 18.869 23.7358 18.5424 23.763 18.2174C23.7309 17.781 23.8315 17.3451 24.0514 16.9675C24.2713 16.5898 24.6002 16.2881 24.9945 16.1024C26.172 15.6479 27.4285 15.4361 28.6891 15.4799C28.882 15.4507 29.0789 15.4638 29.2663 15.5183C29.4537 15.5728 29.6271 15.6674 29.7747 15.7957C29.9222 15.924 30.0403 16.0829 30.1209 16.2614C30.2015 16.4399 30.2427 16.6339 30.2416 16.8299L30.2117 18.7499Z" fill="#333333"/>
<path d="M102.753 12.4345C103.121 13.0288 103.316 13.7147 103.316 14.4145C103.316 15.1143 103.121 15.8002 102.753 16.3945C102.007 17.5345 97.9388 21.8995 96.5953 23.302C95.431 24.517 93.8561 25.747 92.2962 25.747H59.9856C55.6118 25.747 55.3506 24.247 55.3506 20.902V7.25947C55.3506 3.83197 56.3582 2.83447 59.3512 2.83447H92.3708C93.9158 2.83447 95.2966 3.62947 96.8491 5.23447C98.2075 6.60697 102.216 11.6245 102.753 12.4345Z" fill="#33CCCC"/>
<path d="M62.6864 8.10729V8.02479C62.6864 7.58229 62.6864 7.15479 61.94 7.15479H59.2307C58.5963 7.15479 58.5664 7.49979 58.5664 8.03979V11.6398C59.6351 10.1447 61.0489 8.93254 62.6864 8.10729Z" fill="white"/>
<path d="M80.8299 21.1274V20.9324V12.2474C80.8299 8.61242 79.2326 6.79492 76.0381 6.79492C75.149 6.80551 74.2805 7.06525 73.5303 7.54492C72.7037 8.06304 71.9653 8.7113 71.3434 9.46492C71.062 8.65039 70.5149 7.9553 69.791 7.49242C68.9677 7.03645 68.0358 6.81597 67.0965 6.85492C65.7151 6.86015 64.3742 7.32424 63.2826 8.17492C63.0437 8.41492 58.558 11.9249 58.558 15.5849V21.1424C58.558 21.3149 58.4684 21.9899 59.2223 21.9899H62.0361C62.9094 21.9899 62.8273 21.4124 62.8273 21.1724V12.1724C63.2975 11.5349 64.2603 10.0124 65.8501 10.0124C66.1044 9.98917 66.3602 10.0346 66.5912 10.1441C66.8221 10.2535 67.0198 10.423 67.1637 10.6349C67.4829 11.2753 67.6222 11.9909 67.5668 12.7049V19.7174V21.1574C67.5668 21.3299 67.4772 22.0049 68.231 22.0049H71.015C71.8883 22.0049 71.8062 21.4274 71.8062 21.1874V20.9924V12.1424C72.3137 11.5049 73.2989 9.98242 74.829 9.98242C75.0862 9.96127 75.3446 10.0075 75.5787 10.1166C75.8129 10.2257 76.0149 10.394 76.165 10.6049C76.4893 11.2436 76.6314 11.9601 76.5755 12.6749V19.6874V21.1274C76.5755 21.2999 76.486 21.9749 77.2398 21.9749H80.0536C80.9344 21.9299 80.8299 21.3599 80.8299 21.1274Z" fill="white"/>
<path d="M96.3478 17.5946C95.8697 18.8866 94.9936 19.9914 93.8471 20.7482C92.7006 21.505 91.3436 21.8742 89.9738 21.8021C85.6747 21.8021 82.8086 18.8622 82.8086 14.4521C82.8086 10.0421 85.7941 6.95215 89.8245 6.95215C93.8549 6.95215 96.5419 9.75715 96.7136 14.2796C96.7136 14.8572 96.5718 15.3671 95.8478 15.3671H86.7271C86.7868 17.7896 87.9437 19.1172 90.0037 19.1172C90.5506 19.1309 91.09 18.9871 91.5582 18.7027C92.0264 18.4183 92.4038 18.0052 92.6458 17.5121C92.7411 17.3726 92.8695 17.2591 93.0193 17.1819C93.1692 17.1046 93.3358 17.0661 93.5042 17.0696H95.8552C95.9258 17.0663 95.9962 17.0789 96.0612 17.1067C96.1262 17.1344 96.1842 17.1765 96.2308 17.2298C96.2774 17.2831 96.3114 17.3463 96.3304 17.4147C96.3494 17.483 96.3528 17.5548 96.3404 17.6247L96.3478 17.5946ZM89.8394 9.74965C88.1302 9.74965 86.9734 10.9421 86.7196 12.9071H92.8399C92.6831 11.1896 91.7576 9.74965 89.8394 9.74965Z" fill="white"/>
</g>
<defs>
<clipPath id="clip0">
<rect x="0.499023" width="103" height="30" fill="white"/>
</clipPath>
</defs>
</svg>
