<svg width="35" height="26" viewBox="0 0 35 26" fill="none" xmlns="http://www.w3.org/2000/svg">
<path fill-rule="evenodd" clip-rule="evenodd" d="M15.9569 5.3315C15.0084 3.27177 12.9191 1.83777 10.5 1.83777C7.19156 1.83777 4.5 4.51989 4.5 7.81661H0V22.0164C0 24.0801 1.67892 25.7531 3.75 25.7531H17.25C19.3211 25.7531 21 24.0801 21 22.0164V19.5756C20.4741 19.3077 19.9727 18.9989 19.5 18.6533V22.0164C19.5 23.2526 18.4906 24.2584 17.25 24.2584H3.75C2.50936 24.2584 1.5 23.2526 1.5 22.0164V9.31132H4.5V11.5534C4.5 11.9662 4.83581 12.3007 5.25 12.3007C5.66419 12.3007 6 11.9662 6 11.5534V9.31132H15V9.80957V11.5534C15 11.7704 15.0928 11.9658 15.241 12.1023C15.0831 11.3629 15 10.5959 15 9.80957C15 8.21435 15.342 6.69872 15.9569 5.3315ZM15 7.81661C15 5.34403 12.9813 3.33248 10.5 3.33248C8.01867 3.33248 6 5.34403 6 7.81661H15Z" fill="#333333"/>
<path d="M28.604 6.45377C29.0113 7.2511 29.215 8.2391 29.215 9.41777C29.215 10.5964 29.0113 11.5844 28.604 12.3818C28.0147 13.4911 27.0917 14.0458 25.835 14.0458C24.5783 14.0458 23.6553 13.4911 23.066 12.3818C22.6587 11.5844 22.455 10.5964 22.455 9.41777C22.455 8.2391 22.6587 7.2511 23.066 6.45377C23.6553 5.34443 24.5783 4.78977 25.835 4.78977C27.0917 4.78977 28.0147 5.34443 28.604 6.45377ZM24.366 7.06477C24.0887 7.67143 23.95 8.45577 23.95 9.41777C23.95 10.3798 24.0887 11.1641 24.366 11.7708C24.678 12.4468 25.1677 12.7848 25.835 12.7848C26.5023 12.7848 26.992 12.4468 27.304 11.7708C27.5813 11.1641 27.72 10.3798 27.72 9.41777C27.72 8.45577 27.5813 7.67143 27.304 7.06477C26.992 6.38877 26.5023 6.05077 25.835 6.05077C25.1677 6.05077 24.678 6.38877 24.366 7.06477Z" fill="#333333"/>
<path d="M34.5 9.80957C34.5 14.4848 30.6961 18.2778 26 18.2778C21.3039 18.2778 17.5 14.4848 17.5 9.80957C17.5 5.13434 21.3039 1.34131 26 1.34131C30.6961 1.34131 34.5 5.13434 34.5 9.80957Z" stroke="#333333"/>
</svg>
