<svg width="24" height="25" viewBox="0 0 24 25" fill="none" xmlns="http://www.w3.org/2000/svg">
<path d="M23.7895 23.2929L17.7544 17.279C17.6468 17.1718 17.5064 17.1159 17.3567 17.1159H16.8749C18.4795 15.3863 19.462 13.0787 19.462 10.538C19.462 5.1815 15.1064 0.841309 9.73099 0.841309C4.35556 0.841309 0 5.1815 0 10.538C0 15.8945 4.35556 20.2347 9.73099 20.2347C12.2807 20.2347 14.5965 19.2557 16.3322 17.6613V18.1368C16.3322 18.286 16.393 18.4259 16.4959 18.5331L22.531 24.5469C22.7509 24.766 23.1064 24.766 23.3263 24.5469L23.7895 24.0854C24.0094 23.8663 24.0094 23.512 23.7895 23.2929ZM9.73099 18.7429C5.17895 18.7429 1.49708 15.074 1.49708 10.538C1.49708 6.00199 5.17895 2.33311 9.73099 2.33311C14.283 2.33311 17.9649 6.00199 17.9649 10.538C17.9649 15.074 14.283 18.7429 9.73099 18.7429Z" fill="#333333"/>
</svg>
