<svg width="132" height="30" viewBox="0 0 132 30" fill="none" xmlns="http://www.w3.org/2000/svg">
<g clip-path="url(#clip0)">
<path d="M15.492 0.00618557L11.6369 0C7.30575 0 4.50678 2.87165 4.50678 7.31629V10.6896H0.6306C0.295651 10.6896 0.0244141 10.9611 0.0244141 11.2961V16.1836C0.0244141 16.5186 0.295961 16.7898 0.6306 16.7898H4.50678V29.1226C4.50678 29.4575 4.77802 29.7288 5.11297 29.7288H10.1703C10.5052 29.7288 10.7765 29.4572 10.7765 29.1226V16.7898H15.3086C15.6436 16.7898 15.9148 16.5186 15.9148 16.1836L15.9167 11.2961C15.9167 11.1353 15.8527 10.9812 15.7392 10.8674C15.6256 10.7536 15.471 10.6896 15.3102 10.6896H10.7765V7.83C10.7765 6.45557 11.104 5.75783 12.8944 5.75783L15.4914 5.75691C15.8261 5.75691 16.0973 5.48536 16.0973 5.15072V0.612371C16.0973 0.278041 15.8264 0.00680412 15.492 0.00618557Z" fill="#555555"/>
</g>
<path opacity="0.7" d="M56.08 7.8V9.34H48.48V14.22H55.5V15.76H48.48V22H46.64V7.8H56.08ZM65.6872 15.16V22H64.1272V20.78C63.4339 21.8067 62.3205 22.32 60.7872 22.32C59.7072 22.32 58.8472 22.0867 58.2072 21.62C57.5805 21.1533 57.2672 20.4667 57.2672 19.56C57.2672 18.5067 57.6605 17.74 58.4472 17.26C59.2605 16.7667 60.3939 16.3933 61.8472 16.14L64.0472 15.74V15.24C64.0472 14.64 63.8339 14.1667 63.4072 13.82C62.9939 13.4733 62.4405 13.3 61.7472 13.3C61.1472 13.3 60.6072 13.4267 60.1272 13.68C59.6605 13.92 59.1205 14.3467 58.5072 14.96L57.4072 13.98C58.5939 12.58 60.0205 11.88 61.6872 11.88C62.9405 11.88 63.9205 12.18 64.6272 12.78C65.3339 13.3667 65.6872 14.16 65.6872 15.16ZM64.0472 18.32V17.02L62.2472 17.38C61.0205 17.6333 60.1739 17.8933 59.7072 18.16C59.2539 18.4267 59.0005 18.8733 58.9472 19.5C58.9472 19.9533 59.1205 20.3 59.4672 20.54C59.8272 20.78 60.3272 20.9 60.9672 20.9C61.8605 20.9 62.5939 20.6667 63.1672 20.2C63.7539 19.72 64.0472 19.0933 64.0472 18.32ZM72.5117 13.32C71.5784 13.32 70.8451 13.6867 70.3117 14.42C69.7784 15.14 69.5117 16.0267 69.5117 17.08C69.5117 18.12 69.7717 19.0067 70.2917 19.74C70.8251 20.46 71.5717 20.82 72.5317 20.82C73.0651 20.82 73.5451 20.7067 73.9717 20.48C74.4117 20.24 74.9117 19.8067 75.4717 19.18L76.6117 20.14C75.9851 20.9267 75.3584 21.48 74.7317 21.8C74.1051 22.12 73.3717 22.28 72.5317 22.28C71.0917 22.28 69.9317 21.8067 69.0517 20.86C68.1851 19.9133 67.7517 18.6533 67.7517 17.08C67.7517 15.52 68.1917 14.2667 69.0717 13.32C69.9651 12.36 71.1184 11.88 72.5317 11.88C73.3451 11.88 74.0517 12.02 74.6517 12.3C75.2651 12.58 75.8717 13.06 76.4717 13.74L75.3517 14.8C74.8451 14.2533 74.3717 13.8733 73.9317 13.66C73.5051 13.4333 73.0317 13.32 72.5117 13.32ZM85.6964 19.2L86.7164 20.24C86.0097 20.9867 85.3297 21.5133 84.6764 21.82C84.0231 22.1267 83.2764 22.28 82.4364 22.28C80.9564 22.28 79.7697 21.8133 78.8764 20.88C77.9964 19.9333 77.5564 18.6867 77.5564 17.14C77.5564 15.5933 77.9831 14.3333 78.8364 13.36C79.7031 12.3733 80.8431 11.88 82.2564 11.88C83.6564 11.88 84.7431 12.3 85.5164 13.14C86.3031 13.98 86.6964 15.14 86.6964 16.62C86.6964 16.8067 86.6831 17.06 86.6564 17.38H79.2764C79.3297 18.42 79.6297 19.26 80.1764 19.9C80.7231 20.5267 81.4831 20.84 82.4564 20.84C83.0697 20.84 83.5964 20.72 84.0364 20.48C84.4764 20.2533 85.0297 19.8267 85.6964 19.2ZM79.3164 16.1H84.9964C84.9564 15.22 84.6897 14.5267 84.1964 14.02C83.7164 13.5133 83.0631 13.26 82.2364 13.26C81.4364 13.26 80.7831 13.5067 80.2764 14C79.7697 14.4933 79.4497 15.1933 79.3164 16.1ZM96.94 13.34C97.7533 14.3 98.16 15.5467 98.16 17.08C98.16 18.6133 97.7467 19.86 96.92 20.82C96.1067 21.78 95.0733 22.26 93.82 22.26C92.2733 22.26 91.1533 21.68 90.46 20.52V22H88.84V7.8H90.56V13.54C91.28 12.4467 92.3667 11.9 93.82 11.9C95.1 11.9 96.14 12.38 96.94 13.34ZM96.4 17.08C96.4 15.96 96.14 15.06 95.62 14.38C95.1 13.7 94.4133 13.36 93.56 13.36C92.64 13.36 91.9 13.7 91.34 14.38C90.78 15.0467 90.5 15.9467 90.5 17.08C90.5 18.2133 90.78 19.1133 91.34 19.78C91.9 20.4467 92.64 20.78 93.56 20.78C94.4133 20.78 95.1 20.44 95.62 19.76C96.14 19.08 96.4 18.1867 96.4 17.08ZM108.183 13.34C109.089 14.3 109.543 15.5467 109.543 17.08C109.543 18.6133 109.089 19.8667 108.183 20.84C107.276 21.8 106.109 22.28 104.683 22.28C103.256 22.28 102.083 21.8 101.163 20.84C100.256 19.8667 99.8025 18.6133 99.8025 17.08C99.8025 15.5467 100.256 14.3 101.163 13.34C102.083 12.3667 103.256 11.88 104.683 11.88C106.109 11.88 107.276 12.3667 108.183 13.34ZM102.403 14.36C101.843 15.0533 101.562 15.96 101.562 17.08C101.562 18.2 101.843 19.1067 102.403 19.8C102.976 20.4933 103.736 20.84 104.683 20.84C105.629 20.84 106.383 20.5 106.943 19.82C107.503 19.1267 107.783 18.2133 107.783 17.08C107.783 15.9467 107.503 15.04 106.943 14.36C106.383 13.6667 105.629 13.32 104.683 13.32C103.736 13.32 102.976 13.6667 102.403 14.36ZM119.511 13.34C120.417 14.3 120.871 15.5467 120.871 17.08C120.871 18.6133 120.417 19.8667 119.511 20.84C118.604 21.8 117.437 22.28 116.011 22.28C114.584 22.28 113.411 21.8 112.491 20.84C111.584 19.8667 111.131 18.6133 111.131 17.08C111.131 15.5467 111.584 14.3 112.491 13.34C113.411 12.3667 114.584 11.88 116.011 11.88C117.437 11.88 118.604 12.3667 119.511 13.34ZM113.731 14.36C113.171 15.0533 112.891 15.96 112.891 17.08C112.891 18.2 113.171 19.1067 113.731 19.8C114.304 20.4933 115.064 20.84 116.011 20.84C116.957 20.84 117.711 20.5 118.271 19.82C118.831 19.1267 119.111 18.2133 119.111 17.08C119.111 15.9467 118.831 15.04 118.271 14.36C117.711 13.6667 116.957 13.32 116.011 13.32C115.064 13.32 114.304 13.6667 113.731 14.36ZM129.722 22L126.442 17.06L124.662 18.84V22H122.942V7.8H124.662V16.94L129.242 12.16H131.342L127.602 15.96L131.642 22H129.722Z" fill="#333333"/>
<defs>
<clipPath id="clip0">
<rect width="16.3918" height="30" fill="white"/>
</clipPath>
</defs>
</svg>
