<svg width="91" height="93" viewBox="0 0 91 93" fill="none" xmlns="http://www.w3.org/2000/svg">
<mask id="mask0" mask-type="alpha" maskUnits="userSpaceOnUse" x="32" y="0" width="22" height="17">
<path d="M32.6943 0.166626H53.2985V16.9625H32.6943V0.166626Z" fill="white"/>
</mask>
<g mask="url(#mask0)">
<path fill-rule="evenodd" clip-rule="evenodd" d="M42.9381 2.24995C39.2714 2.24995 36.261 4.34578 35.1943 6.6312C36.9485 5.35412 39.6881 4.57704 42.9381 4.57704C46.5277 4.57704 49.0964 5.14995 50.7506 6.32287C50.4722 5.65196 50.0645 5.04244 49.5506 4.52912C48.0923 3.06037 45.7423 2.24995 42.9381 2.24995ZM35.2235 9.95204C36.6089 12.402 40.8777 14.1812 42.9527 14.8145C45.0777 14.3187 49.4902 12.7937 50.8235 10.3437C50.7756 9.55204 50.5048 8.91454 49.9985 8.4062C48.8527 7.24787 46.4735 6.66037 42.9381 6.66037C38.3589 6.66037 35.5214 8.28537 35.2235 9.95204ZM42.8777 16.9625L42.6298 16.8916C42.2214 16.7791 32.6943 14.002 32.6943 8.37079C32.6943 4.0812 37.5777 0.168701 42.9381 0.168701C46.3006 0.168701 49.1735 1.19578 51.0277 3.06245C52.5277 4.5687 53.311 6.59162 53.2985 8.90829C53.2631 14.7 43.5443 16.825 43.1318 16.9125L42.8756 16.9625H42.8777Z" fill="black"/>
</g>
<path fill-rule="evenodd" clip-rule="evenodd" d="M32.0475 21.2333L30.2412 12.5562C30.2412 10.1604 33.9808 4.66035 34.7308 3.58327C34.8089 3.4711 34.9083 3.37541 35.0234 3.30167C35.1385 3.22793 35.267 3.17758 35.4016 3.15349C35.5361 3.12941 35.6741 3.13206 35.8076 3.1613C35.9411 3.19053 36.0676 3.24579 36.1798 3.32389C36.2919 3.402 36.3876 3.50144 36.4614 3.61653C36.5351 3.73162 36.5854 3.86011 36.6095 3.99466C36.6336 4.1292 36.631 4.26718 36.6017 4.4007C36.5725 4.53423 36.5172 4.66068 36.4391 4.77285C34.7704 7.17494 32.4329 11.0895 32.3287 12.4645L33.5787 18.4062L42.7558 14.852C42.9305 14.7802 43.1221 14.7599 43.3079 14.7937C43.4454 14.7688 43.5867 14.7731 43.7225 14.8062L52.9079 16.9354L53.56 11.5499L50.7954 6.28952C50.7318 6.16846 50.6926 6.03605 50.6802 5.89986C50.6678 5.76367 50.6823 5.62637 50.7229 5.49579C50.7635 5.3652 50.8295 5.2439 50.917 5.13881C51.0045 5.03371 51.1118 4.94688 51.2329 4.88327C51.3539 4.81966 51.4863 4.78052 51.6225 4.76808C51.7587 4.75564 51.896 4.77015 52.0266 4.81078C52.1572 4.8514 52.2785 4.91735 52.3836 5.00485C52.4887 5.09236 52.5755 5.19971 52.6391 5.32077L55.7016 11.1541L54.6975 19.4874L43.3412 16.8562L32.0475 21.2333Z" fill="black"/>
<mask id="mask1" mask-type="alpha" maskUnits="userSpaceOnUse" x="0" y="0" width="91" height="93">
<path d="M0.166992 0.166626H90.0837V92.5041H0.166992V0.166626Z" fill="white"/>
</mask>
<g mask="url(#mask1)">
<path fill-rule="evenodd" clip-rule="evenodd" d="M42.9441 2.24996C39.292 2.24996 36.2837 4.31038 35.1462 6.59371L36.2316 6.03746L36.2399 6.05204C37.9691 5.17079 40.2899 4.65621 42.9441 4.65621C46.6107 4.65621 49.2232 5.24996 50.8899 6.46246C50.6083 5.75045 50.1835 5.10378 49.642 4.56246C48.1587 3.07288 45.7795 2.24996 42.9441 2.24996ZM35.1107 10.1187C36.5128 12.6312 40.8503 14.4458 42.9545 15.0895C45.1107 14.5854 49.5962 13.027 50.9503 10.5187C50.9003 9.69788 50.6212 9.04371 50.1003 8.51663C48.9295 7.33954 46.5232 6.74163 42.9441 6.74163C38.2899 6.74163 35.4066 8.41246 35.1107 10.1166V10.1187ZM2.55866 73.8687L10.3962 76.2958C11.6003 72.2062 16.1003 56.9312 17.5795 52.1375C19.2566 46.6958 20.4816 38.4208 20.4962 38.3395C20.4878 38.3395 20.7253 32.1708 20.7253 27.6729C20.7187 24.4388 19.8715 21.2621 18.267 18.4541L7.85449 45.9604L2.55866 73.8687ZM47.1566 92.5041L47.0941 90.4208C56.6003 90.125 64.9816 82.0854 66.3649 80.6916C66.5524 79.6896 67.1982 75.5625 67.5441 64.7937C67.7441 58.552 67.3357 47.552 67.3316 47.4395L69.3941 47.1958L70.4107 52.1708L81.5899 74.0458L87.642 70.9833L80.2587 42.7291C75.9982 33.1875 69.1774 18.1875 68.0795 16.6458C66.3712 14.2479 58.0337 10.4708 53.4191 8.57496C53.4253 8.73121 53.4274 8.89163 53.4274 9.05204C53.3941 14.9333 43.5545 17.0937 43.1357 17.1854L42.8816 17.2375L42.6316 17.1666C42.2607 17.0604 34.3837 14.7541 32.8399 10.1104L19.717 16.8083C21.7384 20.0713 22.8071 23.8345 22.8024 27.6729C22.8024 32.2312 22.5649 38.4687 22.5628 38.5312C22.5003 38.9875 21.292 47.1562 19.5649 52.752C17.867 58.2645 12.1503 77.702 12.092 77.8979L11.7962 78.9125L0.166992 75.3083L5.85658 45.3979L17.0274 15.8437L32.6107 7.88538C33.0482 3.77288 37.7774 0.166626 42.9441 0.166626C46.3399 0.166626 49.2399 1.20621 51.1191 3.09371C51.9795 3.96038 52.6087 4.99371 52.9899 6.15413C55.7691 7.25413 67.3066 11.9708 69.7774 15.4395C71.3503 17.652 81.1107 39.552 82.2191 42.0437L90.0837 72.0833L80.6774 76.8416L69.6274 55.2166C69.6857 58.4666 69.7149 62.1125 69.6274 64.8604C69.2045 77.8375 68.3691 81.3125 68.3357 81.4541L68.267 81.7166L68.0837 81.9125C67.692 82.3291 58.3691 92.152 47.1566 92.5041Z" fill="black"/>
</g>
<path fill-rule="evenodd" clip-rule="evenodd" d="M42.208 32.9792C42.208 32.2208 42.8184 31.6062 43.5663 31.6062C44.3163 31.6062 44.9268 32.2208 44.9268 32.9792C44.9268 33.7375 44.3184 34.3542 43.5663 34.3542C43.2042 34.3514 42.858 34.2051 42.6037 33.9473C42.3495 33.6895 42.2079 33.3413 42.2101 32.9792H42.208ZM42.2101 56.1542C42.2101 55.3979 42.8184 54.7833 43.5643 54.7833C44.3184 54.7833 44.9268 55.3979 44.9268 56.1542C44.9268 56.9146 44.3184 57.5292 43.5663 57.5292C43.2042 57.5264 42.858 57.3801 42.6037 57.1223C42.3495 56.8645 42.2079 56.5163 42.2101 56.1542ZM42.2101 67.7437C42.2101 66.9854 42.8184 66.3687 43.5643 66.3687C44.3184 66.3687 44.9268 66.9854 44.9268 67.7437C44.9268 68.5021 44.3184 69.1187 43.5663 69.1187C43.2042 69.116 42.858 68.9697 42.6037 68.7118C42.3495 68.454 42.2079 68.1059 42.2101 67.7437ZM42.2101 79.3312C42.2101 78.575 42.8184 77.9583 43.5643 77.9583C44.3184 77.9583 44.9268 78.575 44.9268 79.3312C44.9276 79.5107 44.893 79.6886 44.8251 79.8547C44.7572 80.0209 44.6572 80.172 44.5309 80.2995C44.4046 80.4269 44.2544 80.5283 44.0889 80.5977C43.9234 80.6672 43.7458 80.7033 43.5663 80.7042C43.3871 80.7031 43.2099 80.6667 43.0448 80.5971C42.8796 80.5275 42.7298 80.4261 42.6039 80.2986C42.4779 80.1711 42.3783 80.0201 42.3108 79.8541C42.2432 79.6881 42.209 79.5104 42.2101 79.3312ZM42.2101 21.3417C42.2101 20.5833 42.8184 19.9688 43.5643 19.9688C44.3184 19.9688 44.9268 20.5833 44.9268 21.3417C44.9276 21.521 44.893 21.6988 44.8251 21.8648C44.7571 22.0308 44.6571 22.1818 44.5308 22.3091C44.4044 22.4365 44.2542 22.5376 44.0887 22.6068C43.9232 22.676 43.7457 22.712 43.5663 22.7125C43.3872 22.7117 43.2101 22.6756 43.0449 22.6062C42.8798 22.5368 42.73 22.4356 42.604 22.3083C42.478 22.181 42.3784 22.0301 42.3108 21.8642C42.2432 21.6983 42.209 21.5208 42.2101 21.3417Z" fill="black"/>
<mask id="mask2" mask-type="alpha" maskUnits="userSpaceOnUse" x="2" y="39" width="46" height="54">
<path d="M2.41895 39.8229H47.1398V92.5041H2.41895V39.8229Z" fill="white"/>
</mask>
<g mask="url(#mask2)">
<path fill-rule="evenodd" clip-rule="evenodd" d="M13.0731 71.9125L2.41895 68.7625L3.00853 66.7645L13.6627 69.9145L13.0731 71.9145V71.9125ZM47.1398 92.5041H39.5627C29.5794 92.5041 19.7294 81.5166 19.3127 81.052L19.071 80.7812L19.0523 80.4166C19.046 80.3 18.4273 68.7229 18.8439 60.575C19.1898 53.8583 20.0939 39.9604 20.1002 39.825L22.1794 39.9562C22.1689 40.0979 21.2689 53.9812 20.9231 60.6791C20.5544 67.9 21.0127 77.8895 21.1127 79.9312C22.6585 81.5812 31.3231 90.4208 39.5627 90.4208H47.1398V92.5041Z" fill="black"/>
</g>
<path fill-rule="evenodd" clip-rule="evenodd" d="M68.583 49.4959C68.3145 49.4961 68.0563 49.3927 67.8622 49.2072C67.6681 49.0216 67.5532 48.7683 67.5413 48.5C67.1309 39.2188 63.083 13.675 63.0455 13.4167C63.0238 13.2814 63.0291 13.1431 63.0609 13.0099C63.0928 12.8766 63.1506 12.7509 63.2311 12.64C63.3116 12.5291 63.4132 12.4352 63.5301 12.3636C63.647 12.2921 63.7768 12.2443 63.9122 12.223C64.1846 12.1837 64.4615 12.2523 64.6841 12.4142C64.9067 12.5761 65.0573 12.8184 65.1038 13.0896C65.2705 14.1438 69.208 39.0105 69.6226 48.4084C69.6287 48.5448 69.6079 48.6811 69.5612 48.8095C69.5146 48.9379 69.443 49.0558 69.3507 49.1564C69.2584 49.2571 69.1471 49.3385 69.0232 49.396C68.8993 49.4536 68.7653 49.4861 68.6288 49.4917C68.6143 49.4959 68.5976 49.4959 68.583 49.4959ZM78.2268 69.3563L77.3038 67.4896L86.3247 63.0292L87.2497 64.8959L78.2268 69.3563ZM42.208 44.5688C42.208 43.8105 42.8184 43.1938 43.5663 43.1938C44.3163 43.1938 44.9268 43.8105 44.9268 44.5688C44.9276 44.7483 44.893 44.9261 44.8251 45.0923C44.7572 45.2584 44.6572 45.4095 44.5309 45.537C44.4046 45.6645 44.2544 45.7659 44.0889 45.8353C43.9234 45.9047 43.7458 45.9409 43.5663 45.9417C43.387 45.9406 43.2096 45.9042 43.0443 45.8345C42.879 45.7647 42.7291 45.6631 42.6031 45.5354C42.4772 45.4077 42.3776 45.2564 42.3102 45.0902C42.2427 44.924 42.2087 44.7461 42.2101 44.5667" fill="black"/>
<mask id="mask3" mask-type="alpha" maskUnits="userSpaceOnUse" x="0" y="0" width="91" height="93">
<path d="M0.166992 92.5041H90.0837V0.166626H0.166992V92.5041Z" fill="white"/>
</mask>
<g mask="url(#mask3)">
<path fill-rule="evenodd" clip-rule="evenodd" d="M38.9736 90.9603H41.057V17.1166H38.9736V90.9603ZM54.9549 45.8187H59.6841L61.6611 43.3916V35.5666H52.6153L52.5778 43.3832L54.9528 45.8207L54.9549 45.8187ZM60.6799 47.902H54.0757L50.4903 44.2249L50.5403 33.4832H63.7445V44.1312L60.6799 47.902Z" fill="black"/>
</g>
</svg>
