<svg width="87" height="94" viewBox="0 0 87 94" fill="none" xmlns="http://www.w3.org/2000/svg">
<path fill-rule="evenodd" clip-rule="evenodd" d="M62.4985 13.8375L48.2193 7.32706C48.2193 7.32706 48.4485 3.18122 41.9277 1.88956C32.2589 -0.0208586 29.3173 9.00831 29.3173 9.00831L14.1985 17.6375L4.54017 46.8771L1.78809 74.9458L10.4193 77.4666L17.1402 43.8666C17.1402 43.8666 21.1298 50.1666 20.7068 56.4666C20.2881 62.7646 17.1402 79.9875 17.1402 79.9875C17.1402 79.9875 28.4714 92.0229 34.7777 92.0229C41.0881 92.0229 44.4381 93.2896 48.6402 91.325C52.8381 89.3625 62.4985 79.1458 62.4985 79.1458C62.4985 79.1458 58.9298 65.9166 59.3485 59.1958C59.7652 52.4771 62.4985 41.3458 62.4985 41.3458C62.4985 41.3458 63.7568 51.0062 65.436 53.1062C67.1193 55.2041 77.6193 74.3146 77.6193 74.3146L84.7381 70.9562C84.7381 70.9562 65.4381 20.1333 64.5985 16.9875C63.7568 13.8375 62.4985 13.8375 62.4985 13.8375Z" fill="white"/>
<path fill-rule="evenodd" clip-rule="evenodd" d="M38.9217 2.24996C35.2551 2.24996 32.2426 4.34579 31.1738 6.63329C32.9301 5.35413 35.6697 4.57913 38.9238 4.57913C42.5134 4.57913 45.0822 5.15413 46.7363 6.32496C46.4583 5.65328 46.0505 5.04303 45.5363 4.52913C44.078 3.06038 41.7259 2.24996 38.9217 2.24996ZM31.2009 9.95621C32.5842 12.4145 36.8572 14.1895 38.9322 14.8208C41.0572 14.325 45.4759 12.7979 46.8092 10.3479C46.7613 9.55413 46.4884 8.91871 45.9842 8.40829C44.8342 7.24996 42.4572 6.66246 38.9217 6.66246C34.3405 6.66246 31.4988 8.28746 31.2009 9.95413V9.95621ZM38.8592 16.9687L38.6113 16.8979C38.203 16.7854 28.6738 14.0083 28.6738 8.37704C28.6738 4.08121 33.5592 0.166626 38.9238 0.166626C42.2842 0.166626 45.1592 1.19371 47.0134 3.06038C48.5134 4.56663 49.2967 6.58954 49.2842 8.90829C49.2488 14.7041 39.5259 16.8291 39.1113 16.9166L38.8613 16.9687H38.8592Z" fill="black"/>
<path fill-rule="evenodd" clip-rule="evenodd" d="M28.0271 21.2416L26.2188 12.5624C26.2188 10.1604 29.9604 4.66244 30.7104 3.58328C30.8688 3.35783 31.1099 3.20415 31.3811 3.15576C31.6524 3.10736 31.9318 3.16818 32.1583 3.32494C32.2711 3.40268 32.3673 3.50198 32.4415 3.6171C32.5157 3.73223 32.5664 3.8609 32.5906 3.9957C32.6148 4.1305 32.6121 4.26876 32.5826 4.4025C32.5531 4.53624 32.4974 4.66283 32.4187 4.77494C30.75 7.17703 28.4104 11.0916 28.3062 12.4708L29.5604 18.4145L38.7396 14.8583C38.9136 14.7868 39.1044 14.7666 39.2896 14.7999C39.4264 14.775 39.567 14.7793 39.7021 14.8124L48.8937 16.9437L49.5458 11.5541L46.7812 6.29161C46.7176 6.17055 46.6785 6.03814 46.6661 5.90195C46.6536 5.76576 46.6681 5.62846 46.7088 5.49788C46.7494 5.36729 46.8153 5.24599 46.9028 5.1409C46.9903 5.0358 47.0977 4.94897 47.2187 4.88536C47.3398 4.82175 47.4722 4.78261 47.6084 4.77017C47.7446 4.75773 47.8819 4.77224 48.0125 4.81287C48.1431 4.85349 48.2644 4.91944 48.3695 5.00695C48.4746 5.09445 48.5614 5.2018 48.625 5.32286L51.6937 11.1583L50.6833 19.4937L39.325 16.8624L28.0271 21.2416Z" fill="black"/>
<mask id="mask0" mask-type="alpha" maskUnits="userSpaceOnUse" x="0" y="0" width="87" height="94">
<path d="M0.416992 0.166626H86.1628V93.5916H0.416992V0.166626Z" fill="white"/>
</mask>
<g mask="url(#mask0)">
<path fill-rule="evenodd" clip-rule="evenodd" d="M38.9253 2.24996C35.2732 2.24996 32.2649 4.31246 31.1274 6.59371L32.2107 6.03954L32.2191 6.05413C33.9482 5.17496 36.2712 4.66038 38.9274 4.66038C42.5941 4.66038 45.2087 5.25204 46.8774 6.46663C46.5938 5.75389 46.1686 5.10611 45.6274 4.56246C44.142 3.07288 41.7628 2.24996 38.9253 2.24996ZM31.0878 10.1208C32.492 12.6291 36.8316 14.4479 38.9357 15.0958C41.0941 14.5895 45.5816 13.0333 46.9357 10.5208C46.8837 9.70204 46.6066 9.04579 46.0837 8.52079C44.917 7.34163 42.5066 6.74371 38.9253 6.74371C34.2712 6.74371 31.3878 8.41246 31.0878 10.1208ZM2.64199 74.8291L10.4066 76.3979L16.4691 38.3416C16.4941 38.2083 18.0128 31.5416 18.0128 27.1208C18.0128 22.7208 15.842 19.6104 14.442 18.0645L4.92741 46.8708L2.64199 74.8291ZM43.142 93.5916L43.0753 91.5083C52.4045 91.2166 60.0253 80.7166 61.3587 78.7729C60.9837 75.8666 58.817 58.6229 59.3628 54.4416C60.0545 49.1958 61.0191 41.2416 61.0191 41.2395L61.6232 36.2979L66.4045 52.2395L77.5857 74.075L83.5649 71.05L73.1378 42.8437C70.1878 33.4833 65.1378 18.152 64.0712 16.6562C62.3628 14.252 54.0212 10.4729 49.4045 8.57704C49.4107 8.73329 49.4128 8.89163 49.4128 9.05621C49.3795 14.9395 39.5378 17.102 39.117 17.1916L38.8628 17.2437L38.6128 17.1729C38.242 17.0687 30.3628 14.7583 28.8149 10.1125L15.9941 16.6604C17.6399 18.4625 20.0982 22.0104 20.0982 27.1208C20.0982 31.7791 18.5774 38.4583 18.5107 38.7395L12.1253 78.8666L0.416992 76.5083L2.91074 46.3354L12.9753 15.8625L28.5878 7.88954C29.0274 3.77288 33.7587 0.166626 38.9253 0.166626C42.3212 0.166626 45.2253 1.20829 47.1045 3.09371C47.9649 3.96038 48.5941 4.99371 48.9753 6.15829C51.7566 7.25621 63.2962 11.975 65.7691 15.4458C67.3753 17.7062 74.3212 39.675 75.1066 42.1687L86.1628 72.0729L76.6732 76.8687L64.4816 53.0145L62.4857 46.3979C62.1417 49.1711 61.7896 51.9433 61.4295 54.7145C60.8774 58.9166 63.4503 78.6937 63.4732 78.8937L63.5232 79.2708L63.317 79.5895C62.9628 80.1458 54.4732 93.2354 43.1399 93.5916H43.142Z" fill="black"/>
</g>
<path fill-rule="evenodd" clip-rule="evenodd" d="M38.1924 32.9916C38.1924 32.2333 38.8008 31.6166 39.5466 31.6166C40.3028 31.6166 40.9091 32.2333 40.9091 32.9916C40.9091 33.7521 40.3028 34.3666 39.5487 34.3666C39.1866 34.3639 38.8404 34.2175 38.5861 33.9597C38.3318 33.7019 38.1902 33.3537 38.1924 32.9916ZM38.1924 56.1771C38.1924 55.4208 38.8008 54.8021 39.5466 54.8021C40.3028 54.8021 40.9091 55.4208 40.9091 56.1771C40.9091 56.9375 40.3028 57.5521 39.5487 57.5521C39.1866 57.5493 38.8404 57.403 38.5861 57.1452C38.3318 56.8874 38.1902 56.5392 38.1924 56.1771ZM38.1924 67.7687C38.1924 67.0125 38.8008 66.3937 39.5466 66.3937C40.3028 66.3937 40.9091 67.0125 40.9091 67.7687C40.9102 67.9484 40.8759 68.1265 40.8081 68.2929C40.7403 68.4592 40.6403 68.6106 40.514 68.7383C40.3876 68.866 40.2373 68.9675 40.0717 69.0371C39.9061 69.1067 39.7283 69.1429 39.5487 69.1437C39.1866 69.141 38.8404 68.9946 38.5861 68.7368C38.3318 68.479 38.1902 68.1308 38.1924 67.7687ZM38.1924 79.3625C38.1924 78.6062 38.8008 77.9875 39.5466 77.9875C40.3028 77.9875 40.9091 78.6062 40.9091 79.3625C40.9091 80.1208 40.3028 80.7375 39.5487 80.7375C39.1866 80.7347 38.8404 80.5884 38.5861 80.3306C38.3318 80.0728 38.1902 79.7246 38.1924 79.3625ZM38.1924 21.35C38.1924 20.5916 38.8008 19.975 39.5466 19.975C40.3028 19.975 40.9091 20.5916 40.9091 21.35C40.9102 21.5295 40.8758 21.7075 40.808 21.8738C40.7402 22.04 40.6402 22.1913 40.5138 22.3188C40.3875 22.4463 40.2372 22.5477 40.0715 22.617C39.9059 22.6864 39.7282 22.7223 39.5487 22.7229C39.3693 22.7218 39.1919 22.6854 39.0266 22.6156C38.8613 22.5459 38.7114 22.4443 38.5855 22.3166C38.4595 22.1889 38.3599 22.0376 38.2925 21.8714C38.2251 21.7052 38.1911 21.5273 38.1924 21.3479" fill="black"/>
<mask id="mask1" mask-type="alpha" maskUnits="userSpaceOnUse" x="0" y="0" width="87" height="94">
<path d="M0.416992 93.5916H86.1628V0.166626H0.416992V93.5916Z" fill="white"/>
</mask>
<g mask="url(#mask1)">
<path fill-rule="evenodd" clip-rule="evenodd" d="M1.625 70.4541H12.2833V68.3708H1.625V70.4541ZM43.1208 93.5916H35.5417C25.4604 93.5916 16.6125 80.1833 16.2417 79.6124L16.0396 79.3041L16.0792 78.9354C16.0979 78.7479 18.0625 60.2833 18.1958 56.1749C18.4 50.0791 16.1458 40.0708 16.1229 39.9666L18.1542 39.5083C18.25 39.925 20.4917 49.8833 20.2792 56.2437C20.15 60.1437 18.4813 76.0333 18.1896 78.777C19.5375 80.727 27.3604 91.5062 35.5417 91.5062H43.1208V93.5895V93.5916ZM62.2333 45.4937H62.2313C62.0943 45.4937 61.9587 45.4667 61.8321 45.4142C61.7056 45.3617 61.5907 45.2848 61.4939 45.1879C61.3972 45.0909 61.3205 44.9758 61.2683 44.8492C61.2161 44.7226 61.1893 44.5869 61.1896 44.45C61.1896 44.3937 61.1938 38.5291 60.6333 29.3958C60.3139 24.0496 59.7815 18.7183 59.0375 13.4145C59.0119 13.2773 59.0142 13.1362 59.0443 12.9999C59.0743 12.8635 59.1314 12.7345 59.2123 12.6207C59.2931 12.5068 59.396 12.4104 59.5149 12.3371C59.6338 12.2638 59.7661 12.2152 59.9042 12.1941C60.0422 12.173 60.1831 12.1799 60.3184 12.2143C60.4538 12.2487 60.5808 12.31 60.6919 12.3945C60.8031 12.479 60.8962 12.585 60.9655 12.7062C61.0349 12.8274 61.0792 12.9613 61.0958 13.1C61.1063 13.1708 62.1583 20.1812 62.7125 29.2708C63.275 38.4729 63.275 44.3958 63.275 44.4541C63.2745 44.73 63.1645 44.9944 62.9692 45.1893C62.7739 45.3842 62.5092 45.4937 62.2333 45.4937ZM74.2667 69.3583L73.25 67.5395L81.2292 63.077L82.2458 64.8958L74.2667 69.3583ZM38.1917 44.5833C38.1917 43.8249 38.8 43.2104 39.5458 43.2104C40.3021 43.2104 40.9083 43.8249 40.9083 44.5854C40.9083 45.3437 40.3021 45.9604 39.5479 45.9604C39.1858 45.9576 38.8396 45.8113 38.5853 45.5535C38.331 45.2957 38.1894 44.9475 38.1917 44.5854" fill="black"/>
<path fill-rule="evenodd" clip-rule="evenodd" d="M34.9551 92.0458H37.0384V17.125H34.9551V92.0458Z" fill="black"/>
</g>
</svg>
