<svg width="22" height="20" viewBox="0 0 22 20" fill="none" xmlns="http://www.w3.org/2000/svg">
<g clip-path="url(#clip0)">
<path d="M19.1029 2.5116C16.722 0.613161 13.0436 0.898317 10.7657 3.09754C8.48784 0.898317 4.80944 0.609254 2.42857 2.5116C-0.669029 4.98425 -0.215922 9.0155 1.99194 11.1522L9.21693 18.1327C9.62885 18.5311 10.1808 18.7538 10.7657 18.7538C11.3548 18.7538 11.9026 18.535 12.3145 18.1366L19.5395 11.1561C21.7433 9.01941 22.2046 4.98816 19.1029 2.5116ZM18.1308 9.83582L10.9058 16.8163C10.8069 16.91 10.7245 16.91 10.6257 16.8163L3.40069 9.83582C1.8972 8.38269 1.59238 5.63269 3.70139 3.9491C5.30374 2.67175 7.77523 2.86316 9.32403 4.35925L10.7657 5.75379L12.2074 4.35925C13.7645 2.85535 16.236 2.67175 17.8301 3.94519C19.935 5.62879 19.6219 8.39441 18.1308 9.83582Z" fill="#777777"/>
</g>
<defs>
<clipPath id="clip0">
<rect x="0.220703" width="21.09" height="20" fill="white"/>
</clipPath>
</defs>
</svg>
