<svg width="38" height="26" viewBox="0 0 38 26" fill="none" xmlns="http://www.w3.org/2000/svg">
<path fill-rule="evenodd" clip-rule="evenodd" d="M21.309 1.97199C18.9482 1.50275 16.3785 2.29856 14.5639 4.19728L13.5271 5.28628L12.4902 4.20262C10.3429 1.94988 6.01127 0.593961 2.66917 3.47662C-0.636093 6.33792 -0.809778 11.4733 2.14812 14.5695L12.3323 25.2353C12.6586 25.577 13.0902 25.7531 13.5218 25.7531C13.9534 25.7531 14.385 25.5823 14.7113 25.2353L21.6514 17.967C21.2337 17.5931 20.8449 17.1879 20.4887 16.755L13.5481 24.0502L3.35864 13.3844C1.33759 11.2705 0.916538 7.24008 3.76391 4.77915C6.64812 2.28085 10.0376 4.09051 11.2797 5.39305L13.5271 7.74722L15.7744 5.39305C16.5376 4.59227 18.1603 3.58294 19.9716 3.54472C20.3676 2.97923 20.8157 2.45267 21.309 1.97199Z" fill="#333333"/>
<path d="M31.604 6.45377C32.0113 7.2511 32.215 8.2391 32.215 9.41777C32.215 10.5964 32.0113 11.5844 31.604 12.3818C31.0147 13.4911 30.0917 14.0458 28.835 14.0458C27.5783 14.0458 26.6553 13.4911 26.066 12.3818C25.6587 11.5844 25.455 10.5964 25.455 9.41777C25.455 8.2391 25.6587 7.2511 26.066 6.45377C26.6553 5.34443 27.5783 4.78977 28.835 4.78977C30.0917 4.78977 31.0147 5.34443 31.604 6.45377ZM27.366 7.06477C27.0887 7.67143 26.95 8.45577 26.95 9.41777C26.95 10.3798 27.0887 11.1641 27.366 11.7708C27.678 12.4468 28.1677 12.7848 28.835 12.7848C29.5023 12.7848 29.992 12.4468 30.304 11.7708C30.5813 11.1641 30.72 10.3798 30.72 9.41777C30.72 8.45577 30.5813 7.67143 30.304 7.06477C29.992 6.38877 29.5023 6.05077 28.835 6.05077C28.1677 6.05077 27.678 6.38877 27.366 7.06477Z" fill="#333333"/>
<path d="M37.5 9.80957C37.5 14.4848 33.6961 18.2778 29 18.2778C24.3039 18.2778 20.5 14.4848 20.5 9.80957C20.5 5.13434 24.3039 1.34131 29 1.34131C33.6961 1.34131 37.5 5.13434 37.5 9.80957Z" stroke="#333333"/>
</svg>
