<svg width="100" height="100" viewBox="0 0 100 100" fill="none" xmlns="http://www.w3.org/2000/svg">
<g filter="url(#filter0_i)">
<path d="M70.4895 83.1937C70.1671 72.5513 68.812 67.1975 68.3608 65.7762C67.9095 64.3575 67.6508 63.0687 67.4571 60.6812C67.4571 60.6812 67.0696 54.6163 66.5533 52.0363C66.0383 49.4575 65.9746 44.875 66.1021 43.1987C66.2321 41.5212 67.1345 38.425 67.522 37.4575C67.9095 36.49 67.8458 38.36 67.9746 38.94C68.1021 39.5213 69.0046 43.1987 69.3933 44.4875C69.7795 45.7775 69.9258 48.69 70.1021 50.0987C70.522 53.4212 71.4571 53.9075 72.1021 56.1C72.7483 58.2925 78.1658 71.515 78.7446 72.6137C79.3258 73.7125 81.1333 77.7113 81.5195 79.4525C81.9083 81.1937 81.4558 83.1287 82.2283 85.905C82.3583 87.0013 82.3583 88.9987 82.3583 88.9987C82.3583 88.9987 81.9071 93.515 82.6796 93.645C83.4546 93.7763 83.3883 93.2588 83.5208 92.615C83.6496 91.9675 83.7783 89.7762 83.7783 89.26C83.7783 88.7425 83.9071 88.095 84.2296 88.1612C84.5508 88.225 84.6158 88.4838 84.5508 89.1938C84.4871 89.9038 84.5508 94.8063 84.5508 94.8063C84.5508 94.8063 84.3583 96.6125 85.3246 96.5475C86.2908 96.4837 85.9721 94.8063 85.9721 94.8063L86.1008 90.9338C86.1008 90.9338 85.8408 88.675 86.4883 88.675C87.1321 88.675 87.0033 89.71 87.0033 89.71L86.8733 96.4163C86.8733 96.4163 86.7446 97.385 87.7133 97.385C88.6796 97.385 88.6158 96.4163 88.6158 96.2862C88.6158 96.1588 88.4245 93.32 88.4245 92.1575C88.4245 90.9975 88.4871 89.1912 88.4871 89.1912C88.4871 89.1912 88.487 88.4175 89.002 88.5437C89.392 88.7387 89.4533 89.9012 89.3921 90.5462C89.5208 91.7087 89.6496 92.805 89.6496 92.805C89.6496 92.805 89.5195 95.4488 90.4895 95.4488C91.4533 95.4488 91.1983 93.3838 91.1983 93.3838C91.1983 93.3838 91.1983 90.29 91.132 89.2575C91.067 88.2225 90.6171 86.545 90.4883 85.8375C90.3583 85.1275 90.3583 84.5488 90.937 84.9337C91.5183 85.32 93.1945 87.255 94.552 87.255C95.9058 87.255 95.6483 86.03 94.8733 86.03C94.1008 86.03 93.5208 84.5475 92.8733 83.7712C92.2295 82.9975 89.7133 79.7087 88.7433 79.0638C87.7771 78.4163 87.067 77.965 86.6158 76.225C86.1646 74.4812 83.9708 68.095 82.8108 61.3225C81.647 54.55 82.037 51.1938 80.0346 47.065C78.0346 42.9362 78.1008 41.7775 78.0345 40.1637C77.9708 38.55 76.6158 29.7138 76.6796 24.6163C76.7458 19.52 76.8096 13.9075 74.1646 11.4575C71.5208 9.00625 68.7446 8.16625 66.4233 7.26375C64.1021 6.36 57.9095 4.04 57.007 1.71625C56.792 1.17 56.6595 0.57875 56.5808 0H43.2683C43.1521 0.83625 42.9395 1.6625 42.557 2.2675C41.3958 4.10625 33.5583 6.71875 29.4946 8.6525C25.4321 10.5887 23.1096 13.1038 23.1096 21.135C23.1096 29.1663 21.9471 40.9712 21.8508 41.8412C21.7546 42.7125 21.1733 44.8412 19.8183 47.2588C18.4646 49.68 18.1733 53.8413 17.9796 55.5812C17.7871 57.325 16.6258 65.0662 15.8508 68.0325C14.9133 71.6263 13.4746 75.1587 13.2708 75.8375C12.8833 77.1287 12.5608 77.8375 11.8521 78.4837C11.8521 78.4837 9.3358 80.805 8.62705 81.5163C7.91705 82.2237 5.98205 85.19 5.5958 85.4512C5.2083 85.7075 4.1108 86.1588 4.6283 86.6113C5.14455 87.0625 6.3058 86.675 6.8208 86.2887C7.33705 85.9025 8.8208 84.6113 8.8208 84.6113C8.8208 84.6113 9.5308 84.03 9.4008 85C9.27205 85.9662 8.4333 90.1587 8.4333 91.5137C8.4333 92.8688 8.23955 95.32 9.2083 95.32C10.1746 95.32 10.3033 93.7087 10.2396 92.9325C10.1746 92.1588 10.3683 89.2562 10.5621 88.6113C10.7558 87.9662 11.4658 87.9662 11.4658 88.7412C11.4658 89.5162 11.3346 95 11.3346 95C11.3346 95 11.2058 96.87 12.1083 96.87C13.0121 96.87 12.9471 95.9662 12.9471 95.4512C12.9471 94.9337 12.8833 90.2262 12.8833 90.2262C12.8833 90.2262 12.9471 88.42 13.3346 88.5462C13.7221 88.6762 13.8508 88.9362 13.8508 89.9037C13.8508 90.8712 13.9146 94.6138 13.9146 94.8063C13.9146 94.9987 13.9146 96.225 14.7533 96.225C15.5921 96.225 15.3346 95.3875 15.3346 94.9337C15.3346 94.485 15.2046 91.13 15.2046 91.13C15.2046 91.13 15.1396 88.095 15.3346 88.095C15.5271 88.095 16.1733 87.58 16.1071 88.5462C16.1721 90.2262 16.3008 91.71 16.3658 91.9013C16.4308 92.0963 16.4308 93.3862 17.1396 93.3862C17.8496 93.3862 17.7208 91.9675 17.5283 91.3863C17.3983 89.5163 17.3446 87.4163 17.5921 86.6138C17.8508 85.7738 18.2383 84.3575 18.3021 83.13C18.4946 80.1 18.0433 78.6162 18.4308 77.84C18.8171 77.0662 19.2683 76.0987 19.9783 74.5512C20.6883 73.0037 24.2358 65.9062 24.7521 63.9062C25.2683 61.9062 29.8483 51.9725 29.8483 49.1962C29.8483 46.4237 30.2996 44.3587 30.5571 43.005C30.8158 41.65 31.7821 37.7162 31.9771 36.49C32.1708 35.9725 32.7508 37.5225 32.9445 38.5525C33.1371 39.585 34.4921 42.4237 33.1371 51.65C32.2346 56.7475 32.4933 60.5513 32.1708 62.4237C31.8483 64.2937 30.7508 68.2275 30.2996 70.8075C29.8483 73.3875 29.5908 76.035 29.3333 80.6775C29.3333 80.6775 29.2683 89 29.7208 93.7763C29.8683 95.3288 30.1583 97.6 30.4883 100H45.6083C45.7346 99.2262 45.8396 98.565 45.9108 98.0987C46.2996 95.5812 48.4108 85.3888 48.4745 84.8713C48.9183 85.1763 50.1108 85.4762 51.7433 84.8587C52.1946 87.5 53.4583 96.0963 53.4583 96.355C53.4583 96.355 53.7946 97.9488 54.1996 100H69.2933C70.0295 94.2387 70.8258 86.3625 70.4895 83.1937Z" fill="#E1E1E1"/>
</g>
<path d="M66.1372 47.5601L66.5659 52.1013C66.7072 52.2451 66.8022 52.3788 66.8259 52.4888C66.6059 53.5538 61.0997 56.3551 50.0022 56.3551C38.9047 56.3551 33.3984 53.5538 33.1784 52.5138L33.5959 47.6801C31.0484 48.8776 29.4297 50.4726 29.4297 52.5013C29.4297 57.7263 40.0947 60.1051 50.0022 60.1051C59.9109 60.1051 70.5747 57.7263 70.5747 52.5013C70.5747 50.4013 68.8372 48.7701 66.1372 47.5601Z" fill="black"/>
<path d="M49.9995 48.6462C59.9258 48.6462 65.3645 50.8837 66.5633 52.1012L66.1345 47.56C62.112 45.755 55.9295 44.8962 49.9995 44.8962C43.9383 44.8962 37.6058 45.7912 33.5933 47.68L33.1758 52.5137C33.3958 51.4462 38.9008 48.6462 49.9995 48.6462Z" fill="#999999"/>
<defs>
<filter id="filter0_i" x="4.49219" y="0" width="91.019" height="103" filterUnits="userSpaceOnUse" color-interpolation-filters="sRGB">
<feFlood flood-opacity="0" result="BackgroundImageFix"/>
<feBlend mode="normal" in="SourceGraphic" in2="BackgroundImageFix" result="shape"/>
<feColorMatrix in="SourceAlpha" type="matrix" values="0 0 0 0 0 0 0 0 0 0 0 0 0 0 0 0 0 0 127 0" result="hardAlpha"/>
<feOffset dy="3"/>
<feGaussianBlur stdDeviation="5"/>
<feComposite in2="hardAlpha" operator="arithmetic" k2="-1" k3="1"/>
<feColorMatrix type="matrix" values="0 0 0 0 0 0 0 0 0 0 0 0 0 0 0 0 0 0 0.25 0"/>
<feBlend mode="normal" in2="shape" result="effect1_innerShadow"/>
</filter>
</defs>
</svg>
