<svg width="100" height="100" viewBox="0 0 100 100" fill="none" xmlns="http://www.w3.org/2000/svg">
<g filter="url(#filter0_i)">
<path d="M95.6575 90.0938C92.6188 83.7737 92.7163 81.9987 92.6188 79.5287C92.5213 77.0612 90.4613 63.5387 90.56 55.74C90.6588 47.94 90.755 39.3513 86.7388 35.6013C82.7188 31.85 78.5025 30.565 74.9737 29.1838C71.445 27.8 62.0363 24.25 60.6637 20.6925C59.2912 17.14 60.075 12.5 60.075 12.5L39.88 12.7963C39.88 12.7963 40.4688 18.72 38.7038 21.5337C36.94 24.3475 25.03 28.345 18.8525 31.305C12.6775 34.2675 9.14875 38.1175 9.14875 50.4075C9.14875 62.6975 7.3825 80.7613 7.235 82.0963C7.08875 83.4275 6.205 86.6875 4.14875 90.3887C2.69 93.01 2.045 96.965 1.6875 100H17.695C18.6825 97.1712 19.3937 94.7025 19.3937 93.35C19.3937 89.105 20.0788 85.9475 20.4713 83.8737C20.8638 81.7988 22.3338 75.78 22.6275 73.9038C22.9225 73.1138 23.8038 75.4837 24.1 77.0612C24.3913 78.6387 26.4513 82.985 24.3913 97.1012C24.215 98.105 24.075 99.0638 23.95 99.9987H75.5375C75.4212 99.1338 75.3 98.3387 75.1712 97.6937C74.3875 93.7438 74.29 86.735 74.4837 84.1687C74.68 81.6012 76.0537 76.8625 76.6425 75.385C77.2312 73.9025 77.1325 76.7663 77.3287 77.6525C77.5237 78.5425 78.8962 84.1688 79.4863 86.1425C80.0725 88.1175 80.2938 92.575 80.5638 94.73C80.885 97.2925 81.4062 98.7513 81.9688 99.9987H98.3113C97.8488 96.4075 97.2538 93.4112 95.6575 90.0938Z" fill="#E1E1E1"/>
</g>
<path d="M60.1042 15.5713C62.7192 16.5813 64.4505 18.095 64.4505 20.165C64.4505 24.425 57.113 26.3325 49.8405 26.3325C42.568 26.3325 35.2305 24.4263 35.2305 20.165C35.2305 17.9288 37.2517 16.34 40.2242 15.3375L60.1042 15.5713ZM40.2255 15.3375C42.9155 14.4288 46.3867 13.9988 49.8405 13.9988C53.5792 13.9988 57.3355 14.5025 60.1042 15.5713L40.2255 15.3375ZM39.0405 20.165C39.6942 20.95 43.3867 22.5825 49.8405 22.5825C56.2942 22.5825 59.9855 20.95 60.6405 20.165C59.9867 19.38 56.2942 17.7475 49.8405 17.7475C44.5705 17.7475 41.143 18.8363 39.7067 19.6625L39.0405 20.165Z" fill="black"/>
<path d="M39.7061 19.6626C41.1423 18.8363 44.5711 17.7476 49.8398 17.7476C55.7111 17.7476 59.2886 19.0963 60.3798 19.9313C59.9373 18.4301 59.8186 16.8151 59.8261 15.4738C57.0861 14.4751 53.4598 13.9976 49.8411 13.9976C46.3861 13.9976 42.9161 14.4276 40.2261 15.3363C40.1286 15.3688 40.0411 15.4088 39.9448 15.4426C39.9261 16.8126 39.7936 18.4888 39.3711 19.9163L39.7061 19.6626Z" fill="#999999"/>
<defs>
<filter id="filter0_i" x="1.6875" y="12.5" width="96.6238" height="90.5" filterUnits="userSpaceOnUse" color-interpolation-filters="sRGB">
<feFlood flood-opacity="0" result="BackgroundImageFix"/>
<feBlend mode="normal" in="SourceGraphic" in2="BackgroundImageFix" result="shape"/>
<feColorMatrix in="SourceAlpha" type="matrix" values="0 0 0 0 0 0 0 0 0 0 0 0 0 0 0 0 0 0 127 0" result="hardAlpha"/>
<feOffset dy="3"/>
<feGaussianBlur stdDeviation="5"/>
<feComposite in2="hardAlpha" operator="arithmetic" k2="-1" k3="1"/>
<feColorMatrix type="matrix" values="0 0 0 0 0 0 0 0 0 0 0 0 0 0 0 0 0 0 0.25 0"/>
<feBlend mode="normal" in2="shape" result="effect1_innerShadow"/>
</filter>
</defs>
</svg>
