<svg width="133" height="26" viewBox="0 0 133 26" fill="none" xmlns="http://www.w3.org/2000/svg">
<path d="M11.8071 16.4832L11.3118 23.4496C12.0205 23.4496 12.3274 23.1452 12.6954 22.7797L16.0176 19.6046L22.9017 24.646C24.1642 25.3496 25.0538 24.9791 25.3943 23.4845L29.913 2.31089L29.9143 2.30965C30.3147 0.443291 29.2393 -0.286534 28.0092 0.171322L1.4486 10.3402C-0.364108 11.0438 -0.336662 12.0544 1.14045 12.5122L7.93094 14.6243L23.7039 4.75487C24.4462 4.26333 25.1211 4.5353 24.566 5.02684L11.8071 16.4832Z" fill="#555555"/>
<path opacity="0.7" d="M63.44 5.8V7.36H58.96V20H57.1V7.36H52.62V5.8H63.44ZM70.6652 17.2L71.6852 18.24C70.9785 18.9867 70.2985 19.5133 69.6452 19.82C68.9918 20.1267 68.2452 20.28 67.4052 20.28C65.9252 20.28 64.7385 19.8133 63.8452 18.88C62.9652 17.9333 62.5252 16.6867 62.5252 15.14C62.5252 13.5933 62.9518 12.3333 63.8052 11.36C64.6718 10.3733 65.8118 9.88 67.2252 9.88C68.6252 9.88 69.7118 10.3 70.4852 11.14C71.2718 11.98 71.6652 13.14 71.6652 14.62C71.6652 14.8067 71.6518 15.06 71.6252 15.38H64.2452C64.2985 16.42 64.5985 17.26 65.1452 17.9C65.6918 18.5267 66.4518 18.84 67.4252 18.84C68.0385 18.84 68.5652 18.72 69.0052 18.48C69.4452 18.2533 69.9985 17.8267 70.6652 17.2ZM64.2852 14.1H69.9652C69.9252 13.22 69.6585 12.5267 69.1652 12.02C68.6852 11.5133 68.0318 11.26 67.2052 11.26C66.4052 11.26 65.7518 11.5067 65.2452 12C64.7385 12.4933 64.4185 13.1933 64.2852 14.1ZM75.5888 5.8V20H73.8688V5.8H75.5888ZM85.8605 17.2L86.8805 18.24C86.1738 18.9867 85.4938 19.5133 84.8405 19.82C84.1871 20.1267 83.4405 20.28 82.6005 20.28C81.1205 20.28 79.9338 19.8133 79.0405 18.88C78.1605 17.9333 77.7205 16.6867 77.7205 15.14C77.7205 13.5933 78.1471 12.3333 79.0005 11.36C79.8671 10.3733 81.0071 9.88 82.4205 9.88C83.8205 9.88 84.9071 10.3 85.6805 11.14C86.4671 11.98 86.8605 13.14 86.8605 14.62C86.8605 14.8067 86.8471 15.06 86.8205 15.38H79.4405C79.4938 16.42 79.7938 17.26 80.3405 17.9C80.8871 18.5267 81.6471 18.84 82.6205 18.84C83.2338 18.84 83.7605 18.72 84.2005 18.48C84.6405 18.2533 85.1938 17.8267 85.8605 17.2ZM79.4805 14.1H85.1605C85.1205 13.22 84.8538 12.5267 84.3605 12.02C83.8805 11.5133 83.2271 11.26 82.4005 11.26C81.6005 11.26 80.9471 11.5067 80.4405 12C79.9338 12.4933 79.6138 13.1933 79.4805 14.1ZM96.0241 10.16H97.6241V19.78C97.6241 21.0467 97.2241 22.04 96.4241 22.76C95.6241 23.4933 94.5374 23.86 93.1641 23.86C91.5641 23.86 90.0774 23.3733 88.7041 22.4L89.5641 21.14C90.2841 21.5933 90.9107 21.9133 91.4441 22.1C91.9774 22.3 92.5441 22.4 93.1441 22.4C94.0107 22.4 94.6907 22.1667 95.1841 21.7C95.6774 21.2467 95.9241 20.56 95.9241 19.64V18.3C95.2307 19.3533 94.1841 19.88 92.7841 19.88C91.5307 19.88 90.4974 19.4133 89.6841 18.48C88.8707 17.5333 88.4641 16.3333 88.4641 14.88C88.4641 13.4267 88.8707 12.2333 89.6841 11.3C90.4974 10.3533 91.5307 9.88 92.7841 9.88C94.2507 9.88 95.3307 10.46 96.0241 11.62V10.16ZM95.1641 17.44C95.6974 16.7733 95.9641 15.92 95.9641 14.88C95.9641 13.84 95.6974 12.9933 95.1641 12.34C94.6307 11.6733 93.9307 11.34 93.0641 11.34C92.1974 11.34 91.5041 11.6667 90.9841 12.32C90.4774 12.96 90.2241 13.8133 90.2241 14.88C90.2241 15.9467 90.4774 16.8067 90.9841 17.46C91.5041 18.1 92.1974 18.42 93.0641 18.42C93.9307 18.42 94.6307 18.0933 95.1641 17.44ZM105.933 10.34L105.613 11.78C105.159 11.6467 104.733 11.58 104.333 11.58C103.639 11.58 103.079 11.8667 102.653 12.44C102.239 13 102.033 13.76 102.033 14.72V20H100.313V10.16H101.933V11.64C102.453 10.5733 103.266 10.04 104.373 10.04C104.879 10.04 105.399 10.14 105.933 10.34ZM115.226 13.16V20H113.666V18.78C112.973 19.8067 111.86 20.32 110.326 20.32C109.246 20.32 108.386 20.0867 107.746 19.62C107.12 19.1533 106.806 18.4667 106.806 17.56C106.806 16.5067 107.2 15.74 107.986 15.26C108.8 14.7667 109.933 14.3933 111.386 14.14L113.586 13.74V13.24C113.586 12.64 113.373 12.1667 112.946 11.82C112.533 11.4733 111.98 11.3 111.286 11.3C110.686 11.3 110.146 11.4267 109.666 11.68C109.2 11.92 108.66 12.3467 108.046 12.96L106.946 11.98C108.133 10.58 109.56 9.88 111.226 9.88C112.48 9.88 113.46 10.18 114.166 10.78C114.873 11.3667 115.226 12.16 115.226 13.16ZM113.586 16.32V15.02L111.786 15.38C110.56 15.6333 109.713 15.8933 109.246 16.16C108.793 16.4267 108.54 16.8733 108.486 17.5C108.486 17.9533 108.66 18.3 109.006 18.54C109.366 18.78 109.866 18.9 110.506 18.9C111.4 18.9 112.133 18.6667 112.706 18.2C113.293 17.72 113.586 17.0933 113.586 16.32ZM131.471 13.14V20H129.751V13.62C129.751 12.1 129.097 11.34 127.791 11.34C127.111 11.34 126.564 11.5733 126.151 12.04C125.737 12.4933 125.531 13.0867 125.531 13.82V20H123.811V13.62C123.811 12.1 123.157 11.34 121.851 11.34C121.197 11.34 120.657 11.5667 120.231 12.02C119.817 12.4733 119.611 13.0733 119.611 13.82V20H117.891V10.16H119.511V11.34C120.111 10.3667 121.051 9.88 122.331 9.88C123.677 9.88 124.624 10.4133 125.171 11.48C125.851 10.4133 126.857 9.88 128.191 9.88C129.244 9.88 130.051 10.18 130.611 10.78C131.184 11.3667 131.471 12.1533 131.471 13.14Z" fill="#333333"/>
</svg>
