<svg width="270" height="265" viewBox="0 0 270 265" fill="none" xmlns="http://www.w3.org/2000/svg">
<path fill-rule="evenodd" clip-rule="evenodd" d="M0.643159 3.73639C1.28857 6.47005 1.28764 6.47027 1.28682 6.47047L1.29121 6.46945L1.33119 6.46036C1.37004 6.45164 1.43301 6.43777 1.51865 6.41973C1.69001 6.38365 1.95172 6.33098 2.29233 6.2696C2.97431 6.1467 3.96803 5.9897 5.18243 5.86064C7.62493 5.60108 10.8917 5.46208 14.2811 5.90736C21.0537 6.79709 27.7679 9.87806 30.1466 18.5298C36.8607 42.9503 48.0069 93.5517 57.4908 138.136C62.2288 160.41 66.5457 181.152 69.6782 196.326C71.2445 203.913 72.5145 210.108 73.393 214.405C73.7309 216.059 74.0109 217.431 74.2275 218.494C64.8224 221.684 58.0517 230.609 58.0517 241.121C58.0517 254.309 68.7088 265 81.8551 265C94.5312 265 104.893 255.06 105.618 242.526H195.311C196.036 255.06 206.398 265 219.074 265C232.221 265 242.878 254.309 242.878 241.121C242.878 227.933 232.221 217.242 219.074 217.242C207.361 217.242 197.624 225.729 195.64 236.907H105.289C103.305 225.729 93.568 217.242 81.8551 217.242C81.1315 217.242 80.4155 217.274 79.7084 217.338C79.4925 216.278 79.2145 214.915 78.8796 213.277C78.0005 208.976 76.7297 202.778 75.1626 195.187C74.6463 192.686 74.0979 190.033 73.5206 187.248L233.599 172.527C234.736 172.422 235.652 171.649 235.997 170.631C236.188 170.369 236.338 170.07 236.432 169.741L269.89 52.9366C270.189 51.8933 269.859 50.8183 269.124 50.1198C268.644 49.2634 267.73 48.6848 266.681 48.6848H43.4435C40.4782 36.0712 37.7729 25.1364 35.5458 17.0359C32.3247 5.32025 22.9373 1.378 15.0084 0.33635C11.047 -0.184067 7.313 -0.0157897 4.59241 0.273333C3.22525 0.418622 2.09684 0.59632 1.30208 0.739539C0.904318 0.811218 0.589008 0.874464 0.367934 0.921022C0.257366 0.944308 0.170264 0.963442 0.108103 0.977397L0.0337099 0.994324L0.0108601 0.99964L0.00307973 1.00147L0.000106739 1.00217C-0.00112347 1.00246 -0.00224916 1.00273 0.643159 3.73639ZM44.7559 54.3034C50.5029 79.0568 57.067 109.221 62.9683 136.964C66.4258 153.217 69.659 168.656 72.3718 181.712L231.364 167.09L263.671 54.3034H44.7559ZM81.8551 259.381C91.9081 259.381 100.058 251.206 100.058 241.121C100.058 231.036 91.9081 222.861 81.8551 222.861C71.8021 222.861 63.6525 231.036 63.6525 241.121C63.6525 251.206 71.8021 259.381 81.8551 259.381ZM219.074 259.381C229.127 259.381 237.277 251.206 237.277 241.121C237.277 231.036 229.127 222.861 219.074 222.861C209.021 222.861 200.872 231.036 200.872 241.121C200.872 251.206 209.021 259.381 219.074 259.381Z" fill="#999999"/>
</svg>
