<svg width="141" height="30" viewBox="0 0 141 30" fill="none" xmlns="http://www.w3.org/2000/svg">
<path d="M21.6011 0H8.23306C3.69335 0 0 3.69353 0 8.23324V21.6012C0 26.1411 3.69335 29.8345 8.23306 29.8345H21.6011C26.1411 29.8345 29.8345 26.1409 29.8345 21.6012V8.23324C29.8346 3.69353 26.1411 0 21.6011 0ZM27.1876 21.6012C27.1876 24.6815 24.6815 27.1874 21.6012 27.1874H8.23306C5.15294 27.1876 2.64706 24.6815 2.64706 21.6012V8.23324C2.64706 5.15312 5.15294 2.64706 8.23306 2.64706H21.6011C24.6814 2.64706 27.1874 5.15312 27.1874 8.23324V21.6012H27.1876Z" fill="#555555"/>
<path d="M14.9171 7.22998C10.6781 7.22998 7.22949 10.6786 7.22949 14.9176C7.22949 19.1564 10.6781 22.6048 14.9171 22.6048C19.1561 22.6048 22.6047 19.1564 22.6047 14.9176C22.6047 10.6786 19.1561 7.22998 14.9171 7.22998ZM14.9171 19.9576C12.1378 19.9576 9.87655 17.6966 9.87655 14.9174C9.87655 12.138 12.1377 9.87686 14.9171 9.87686C17.6965 9.87686 19.9576 12.138 19.9576 14.9174C19.9576 17.6966 17.6963 19.9576 14.9171 19.9576Z" fill="#555555"/>
<path d="M22.9275 4.98535C22.4175 4.98535 21.9165 5.19182 21.5563 5.55359C21.1944 5.91359 20.9863 6.41476 20.9863 6.92653C20.9863 7.4367 21.1946 7.9377 21.5563 8.29947C21.9163 8.65947 22.4175 8.8677 22.9275 8.8677C23.4393 8.8677 23.9387 8.65947 24.3004 8.29947C24.6622 7.9377 24.8687 7.43653 24.8687 6.92653C24.8687 6.41476 24.6622 5.91359 24.3004 5.55359C23.9404 5.19182 23.4393 4.98535 22.9275 4.98535Z" fill="#555555"/>
<path opacity="0.7" d="M55.62 7.8V22H53.78V7.8H55.62ZM66.9706 15.26V22H65.2506V15.8C65.2506 15 65.0573 14.3933 64.6706 13.98C64.284 13.5533 63.724 13.34 62.9906 13.34C62.284 13.34 61.684 13.5867 61.1906 14.08C60.6973 14.56 60.4506 15.1667 60.4506 15.9V22H58.7306V12.16H60.3506V13.42C60.9906 12.3933 62.024 11.88 63.4506 11.88C64.5706 11.88 65.4373 12.1933 66.0506 12.82C66.664 13.4467 66.9706 14.26 66.9706 15.26ZM77.0291 13.32L76.0891 14.48C75.4891 14.0133 74.9624 13.7 74.5091 13.54C74.0691 13.3667 73.5624 13.28 72.9891 13.28C72.3357 13.28 71.8091 13.42 71.4091 13.7C71.0224 13.9667 70.8291 14.3133 70.8291 14.74C70.8824 15.1533 71.0557 15.44 71.3491 15.6C71.6424 15.7467 72.3491 15.9467 73.4691 16.2C74.8291 16.52 75.7891 16.9 76.3491 17.34C76.9091 17.7667 77.1891 18.3933 77.1891 19.22C77.1891 20.14 76.8291 20.88 76.1091 21.44C75.3891 22 74.4357 22.28 73.2491 22.28C72.3557 22.28 71.5624 22.1467 70.8691 21.88C70.1891 21.6 69.4691 21.12 68.7091 20.44L69.7291 19.32C70.4491 19.92 71.0624 20.3267 71.5691 20.54C72.0757 20.7533 72.6424 20.86 73.2691 20.86C73.9224 20.86 74.4557 20.72 74.8691 20.44C75.2957 20.16 75.5091 19.78 75.5091 19.3C75.5091 18.8333 75.3091 18.4867 74.9091 18.26C74.5091 18.0333 73.7891 17.8067 72.7491 17.58C71.3491 17.26 70.4091 16.9267 69.9291 16.58C69.4491 16.22 69.1957 15.6267 69.1691 14.8C69.1691 13.9333 69.5224 13.2333 70.2291 12.7C70.9357 12.1533 71.8557 11.88 72.9891 11.88C73.8024 11.88 74.5157 11.9933 75.1291 12.22C75.7424 12.4333 76.3757 12.8 77.0291 13.32ZM84.2813 20.48L84.5413 21.84C83.9013 22.0667 83.2279 22.18 82.5213 22.18C81.6279 22.18 80.9813 21.98 80.5813 21.58C80.1813 21.1667 79.9813 20.5467 79.9813 19.72V13.46H78.1413V12.16H79.9813V8.86H81.7013V12.16H84.3613V13.46H81.7013V19.52C81.7013 19.96 81.7879 20.2733 81.9613 20.46C82.1479 20.6333 82.4479 20.72 82.8613 20.72C83.2346 20.72 83.7079 20.64 84.2813 20.48ZM94.2497 15.16V22H92.6897V20.78C91.9964 21.8067 90.883 22.32 89.3497 22.32C88.2697 22.32 87.4097 22.0867 86.7697 21.62C86.143 21.1533 85.8297 20.4667 85.8297 19.56C85.8297 18.5067 86.223 17.74 87.0097 17.26C87.823 16.7667 88.9564 16.3933 90.4097 16.14L92.6097 15.74V15.24C92.6097 14.64 92.3964 14.1667 91.9697 13.82C91.5564 13.4733 91.003 13.3 90.3097 13.3C89.7097 13.3 89.1697 13.4267 88.6897 13.68C88.223 13.92 87.683 14.3467 87.0697 14.96L85.9697 13.98C87.1564 12.58 88.583 11.88 90.2497 11.88C91.503 11.88 92.483 12.18 93.1897 12.78C93.8964 13.3667 94.2497 14.16 94.2497 15.16ZM92.6097 18.32V17.02L90.8097 17.38C89.583 17.6333 88.7364 17.8933 88.2697 18.16C87.8164 18.4267 87.563 18.8733 87.5097 19.5C87.5097 19.9533 87.683 20.3 88.0297 20.54C88.3897 20.78 88.8897 20.9 89.5297 20.9C90.423 20.9 91.1564 20.6667 91.7297 20.2C92.3164 19.72 92.6097 19.0933 92.6097 18.32ZM103.934 12.16H105.534V21.78C105.534 23.0467 105.134 24.04 104.334 24.76C103.534 25.4933 102.448 25.86 101.074 25.86C99.4742 25.86 97.9876 25.3733 96.6142 24.4L97.4742 23.14C98.1942 23.5933 98.8209 23.9133 99.3542 24.1C99.8876 24.3 100.454 24.4 101.054 24.4C101.921 24.4 102.601 24.1667 103.094 23.7C103.588 23.2467 103.834 22.56 103.834 21.64V20.3C103.141 21.3533 102.094 21.88 100.694 21.88C99.4409 21.88 98.4076 21.4133 97.5942 20.48C96.7809 19.5333 96.3742 18.3333 96.3742 16.88C96.3742 15.4267 96.7809 14.2333 97.5942 13.3C98.4076 12.3533 99.4409 11.88 100.694 11.88C102.161 11.88 103.241 12.46 103.934 13.62V12.16ZM103.074 19.44C103.608 18.7733 103.874 17.92 103.874 16.88C103.874 15.84 103.608 14.9933 103.074 14.34C102.541 13.6733 101.841 13.34 100.974 13.34C100.108 13.34 99.4142 13.6667 98.8942 14.32C98.3876 14.96 98.1342 15.8133 98.1342 16.88C98.1342 17.9467 98.3876 18.8067 98.8942 19.46C99.4142 20.1 100.108 20.42 100.974 20.42C101.841 20.42 102.541 20.0933 103.074 19.44ZM113.843 12.34L113.523 13.78C113.069 13.6467 112.643 13.58 112.243 13.58C111.549 13.58 110.989 13.8667 110.563 14.44C110.149 15 109.943 15.76 109.943 16.72V22H108.223V12.16H109.843V13.64C110.363 12.5733 111.176 12.04 112.283 12.04C112.789 12.04 113.309 12.14 113.843 12.34ZM123.136 15.16V22H121.576V20.78C120.883 21.8067 119.77 22.32 118.236 22.32C117.156 22.32 116.296 22.0867 115.656 21.62C115.03 21.1533 114.716 20.4667 114.716 19.56C114.716 18.5067 115.11 17.74 115.896 17.26C116.71 16.7667 117.843 16.3933 119.296 16.14L121.496 15.74V15.24C121.496 14.64 121.283 14.1667 120.856 13.82C120.443 13.4733 119.89 13.3 119.196 13.3C118.596 13.3 118.056 13.4267 117.576 13.68C117.11 13.92 116.57 14.3467 115.956 14.96L114.856 13.98C116.043 12.58 117.47 11.88 119.136 11.88C120.39 11.88 121.37 12.18 122.076 12.78C122.783 13.3667 123.136 14.16 123.136 15.16ZM121.496 18.32V17.02L119.696 17.38C118.47 17.6333 117.623 17.8933 117.156 18.16C116.703 18.4267 116.45 18.8733 116.396 19.5C116.396 19.9533 116.57 20.3 116.916 20.54C117.276 20.78 117.776 20.9 118.416 20.9C119.31 20.9 120.043 20.6667 120.616 20.2C121.203 19.72 121.496 19.0933 121.496 18.32ZM139.381 15.14V22H137.661V15.62C137.661 14.1 137.008 13.34 135.701 13.34C135.021 13.34 134.474 13.5733 134.061 14.04C133.648 14.4933 133.441 15.0867 133.441 15.82V22H131.721V15.62C131.721 14.1 131.068 13.34 129.761 13.34C129.108 13.34 128.568 13.5667 128.141 14.02C127.728 14.4733 127.521 15.0733 127.521 15.82V22H125.801V12.16H127.421V13.34C128.021 12.3667 128.961 11.88 130.241 11.88C131.588 11.88 132.534 12.4133 133.081 13.48C133.761 12.4133 134.768 11.88 136.101 11.88C137.154 11.88 137.961 12.18 138.521 12.78C139.094 13.3667 139.381 14.1533 139.381 15.14Z" fill="#333333"/>
</svg>
